<svg width="58" height="41" viewBox="0 0 58 41" fill="none" xmlns="http://www.w3.org/2000/svg">
<path d="M2.95315 10.7017L0.0682983 17.3601H1.94649L2.47878 16.0268H5.57324L6.10277 17.3601H8.02233L5.14024 10.7017H2.95315ZM4.02049 12.2513L4.96373 14.5812H3.0745L4.02049 12.2513Z" fill="white"/>
<path fill-rule="evenodd" clip-rule="evenodd" d="M8.22089 17.3591V10.7007L10.8899 10.7105L12.4423 15.0035L13.9575 10.7007H16.6052V17.3591H14.9283V12.4529L13.1508 17.3591H11.6802L9.89774 12.4529V17.3591H8.22089Z" fill="white"/>
<path fill-rule="evenodd" clip-rule="evenodd" d="M17.7525 17.3591V10.7007H23.2243V12.1901H19.447V13.329H23.1361V14.7308H19.447V15.9135H23.2243V17.3591H17.7525Z" fill="white"/>
<path d="M24.1951 10.7017V17.3601H25.872V14.9946H26.578L28.5886 17.3601H30.6378L28.4314 14.907C29.3369 14.8311 30.271 14.0596 30.271 12.8618C30.271 11.4607 29.1631 10.7017 27.9267 10.7017H24.1951ZM25.872 12.191H27.7888C28.2486 12.191 28.5831 12.5481 28.5831 12.8919C28.5831 13.3343 28.1497 13.5928 27.8136 13.5928H25.872V12.191Z" fill="white"/>
<path fill-rule="evenodd" clip-rule="evenodd" d="M32.6677 17.3591H30.9556V10.7007H32.6677V17.3591Z" fill="white"/>
<path fill-rule="evenodd" clip-rule="evenodd" d="M36.7275 17.3591H36.3579C34.5697 17.3591 33.4841 15.9606 33.4841 14.0573C33.4841 12.1069 34.5576 10.7007 36.8157 10.7007H38.6691V12.2777H36.748C35.8313 12.2777 35.183 12.9878 35.183 14.0737C35.183 15.3632 35.9243 15.9048 36.9922 15.9048H37.4335L36.7275 17.3591Z" fill="white"/>
<path d="M40.3762 10.7017L37.4914 17.3601H39.3696L39.9019 16.0268H42.9963L43.5259 17.3601H45.4454L42.5633 10.7017H40.3762ZM41.4436 12.2513L42.3868 14.5812H40.4976L41.4436 12.2513Z" fill="white"/>
<path fill-rule="evenodd" clip-rule="evenodd" d="M45.6412 17.3591V10.7007H47.7732L50.4953 14.8841V10.7007H52.1721V17.3591H50.1092L47.3181 13.0662V17.3591H45.6412Z" fill="white"/>
<path fill-rule="evenodd" clip-rule="evenodd" d="M12.2806 29.0112V22.3528H17.7525V23.8422H13.9751V24.9811H17.6642V26.3829H13.9751V27.5656H17.7525V29.0112H12.2806Z" fill="white"/>
<path fill-rule="evenodd" clip-rule="evenodd" d="M39.0927 29.0112V22.3528H44.5646V23.8422H40.7872V24.9811H44.4587V26.3829H40.7872V27.5656H44.5646V29.0112H39.0927Z" fill="white"/>
<path fill-rule="evenodd" clip-rule="evenodd" d="M17.9649 29.0112L20.6291 25.7231L17.9014 22.3528H20.014L21.6385 24.4363L23.2685 22.3528H25.2984L22.6066 25.682L25.2757 29.0112H23.1634L21.5861 26.9606L20.0471 29.0112H17.9649Z" fill="white"/>
<path d="M25.4749 22.354V29.0124H27.1958V26.9098H28.9609C30.4545 26.9098 31.5865 26.1232 31.5865 24.5936C31.5865 23.3264 30.6987 22.354 29.1788 22.354H25.4749ZM27.1958 23.8598H29.0547C29.5372 23.8598 29.8821 24.1534 29.8821 24.6264C29.8821 25.0708 29.539 25.393 29.0492 25.393H27.1958V23.8598Z" fill="white"/>
<path d="M32.3146 22.3528V29.0112H33.9915V26.6457H34.6975L36.7081 29.0112H38.7573L36.5509 26.5581C37.4564 26.4822 38.3905 25.7107 38.3905 24.5129C38.3905 23.1118 37.2826 22.3528 36.0462 22.3528H32.3146ZM33.9915 23.8422H35.9083C36.3681 23.8422 36.7026 24.1992 36.7026 24.5431C36.7026 24.9854 36.2692 25.2439 35.9331 25.2439H33.9915V23.8422Z" fill="white"/>
<path fill-rule="evenodd" clip-rule="evenodd" d="M45.3412 29.0112V27.5656H48.6971C49.1937 27.5656 49.4087 27.2993 49.4087 27.0071C49.4087 26.7272 49.1944 26.4442 48.6971 26.4442H47.1806C45.8624 26.4442 45.1283 25.647 45.1283 24.45C45.1283 23.3824 45.8006 22.3528 47.7594 22.3528H51.0249L50.3188 23.8509H47.4947C46.9548 23.8509 46.7886 24.1321 46.7886 24.4007C46.7886 24.6767 46.994 24.9811 47.4064 24.9811H48.995C50.4645 24.9811 51.1021 25.8086 51.1021 26.8921C51.1021 28.0571 50.3916 29.0112 48.915 29.0112H45.3412Z" fill="white"/>
<path fill-rule="evenodd" clip-rule="evenodd" d="M51.4956 29.0112V27.5656H54.8515C55.3481 27.5656 55.5631 27.2993 55.5631 27.0071C55.5631 26.7272 55.3488 26.4442 54.8515 26.4442H53.335C52.0168 26.4442 51.2827 25.647 51.2827 24.45C51.2827 23.3824 51.955 22.3528 53.9138 22.3528H57.1793L56.4732 23.8509H53.6491C53.1092 23.8509 52.943 24.1321 52.943 24.4007C52.943 24.6767 53.1484 24.9811 53.5608 24.9811H55.1494C56.6189 24.9811 57.2565 25.8086 57.2565 26.8921C57.2565 28.0571 56.546 29.0112 55.0694 29.0112H51.4956Z" fill="white"/>
</svg>
