<svg width="48" height="34" viewBox="0 0 48 34" fill="none" xmlns="http://www.w3.org/2000/svg">
<path d="M29.701 6.34106H17.3026V26.3119H29.701V6.34106Z" fill="#E8E8E8"/>
<path fill-rule="evenodd" clip-rule="evenodd" d="M18.5797 16.3284C18.5766 12.4319 20.3903 8.75046 23.4983 6.34472C18.2184 2.2525 10.6362 2.84856 6.08028 7.71403C1.52439 12.5795 1.52439 20.0808 6.08028 24.9463C10.6362 29.8117 18.2184 30.4078 23.4983 26.3156C20.3893 23.9091 18.5755 20.2261 18.5797 16.3284Z" fill="#E8E8E8"/>
<path d="M43.163 24.8316V23.898H43.3844V23.7048H42.8576V23.898H43.0657V24.8316H43.163ZM44.1856 24.8316V23.7048H44.0263L43.8403 24.5097L43.6544 23.7048H43.4951V24.8316H43.6101V23.9785L43.7828 24.7109H43.9023L44.0749 23.9785V24.8316H44.1856Z" fill="white"/>
<path fill-rule="evenodd" clip-rule="evenodd" d="M44.335 16.3282C44.335 21.1907 41.5195 25.6263 37.0847 27.7511C32.6499 29.876 27.3742 29.3171 23.4981 26.3118C26.6047 23.904 28.4186 20.2231 28.4186 16.3264C28.4186 12.4297 26.6047 8.74875 23.4981 6.34097C27.3742 3.33568 32.6499 2.77679 37.0847 4.90167C41.5195 7.02654 44.335 11.4621 44.335 16.3246V16.3282Z" fill="white"/>
</svg>
