<svg width="48" height="34" viewBox="0 0 48 34" fill="none" xmlns="http://www.w3.org/2000/svg">
<path opacity="0.68" fill-rule="evenodd" clip-rule="evenodd" d="M32.146 11.0977C32.4359 9.23052 32.144 7.96034 31.1443 6.80945C30.0436 5.54269 28.0553 5 25.5113 5H18.1266C17.6068 5 17.1639 5.38208 17.0831 5.90106L14.0078 25.5972C13.9473 25.9859 14.2448 26.3372 14.6339 26.3372H19.1929L18.8783 28.3527C18.8253 28.6927 19.0852 29 19.4259 29H23.2688C23.7235 29 24.1108 28.6658 24.1817 28.2119L24.2194 28.0144L24.9433 23.3776L24.99 23.1214C25.0609 22.6677 25.4481 22.333 25.9028 22.333H26.4776C30.2004 22.333 33.1154 20.8054 33.9671 16.3872C34.3231 14.541 34.1389 13 33.1977 11.9166C32.9134 11.5895 32.5591 11.3186 32.146 11.0977Z" fill="white"/>
<path opacity="0.7" fill-rule="evenodd" clip-rule="evenodd" d="M32.146 11.0977C32.4359 9.23052 32.144 7.96034 31.1443 6.80945C30.0436 5.54269 28.0553 5 25.5113 5H18.1266C17.6068 5 17.1639 5.38208 17.0831 5.90106L14.0078 25.5972C13.9473 25.9859 14.2448 26.3372 14.6339 26.3372H19.1929L20.3381 19.0018L20.3025 19.2319C20.3836 18.7131 20.8223 18.3308 21.3424 18.3308H23.5094C27.7649 18.3308 31.0971 16.5844 32.0705 11.534C32.0995 11.3849 32.1239 11.2399 32.146 11.0977Z" fill="#F4F4F4"/>
<path fill-rule="evenodd" clip-rule="evenodd" d="M21.5685 11.1223C21.6171 10.8104 21.8155 10.5547 22.0825 10.4257C22.2037 10.367 22.3395 10.3342 22.4816 10.3342H28.2702C28.956 10.3342 29.5954 10.3797 30.1799 10.4748C30.3469 10.5019 30.5095 10.5332 30.6675 10.5687C30.8253 10.6041 30.9787 10.6435 31.1271 10.6875C31.2014 10.7092 31.2742 10.7324 31.3461 10.7564C31.6331 10.8527 31.9006 10.9661 32.1464 11.0979C32.4364 9.23076 32.1445 7.96058 31.1448 6.80969C30.0436 5.54269 28.0553 5 25.5113 5H18.1266C17.6068 5 17.1639 5.38208 17.0831 5.90106L14.0078 25.5972C13.9473 25.9859 14.2448 26.3372 14.6339 26.3372H19.1929L20.3381 19.0018L21.5685 11.1223Z" fill="#F4F4F4"/>
</svg>
