<svg width="48" height="34" viewBox="0 0 48 34" fill="none" xmlns="http://www.w3.org/2000/svg">
<path fill-rule="evenodd" clip-rule="evenodd" d="M20.6227 23.7836H16.7675L19.1788 9.26318H23.0338L20.6227 23.7836Z" fill="white"/>
<path fill-rule="evenodd" clip-rule="evenodd" d="M34.598 9.61819C33.8376 9.32439 32.6315 9 31.1402 9C27.3331 9 24.6522 10.9771 24.6357 13.8039C24.6041 15.8894 26.5552 17.0478 28.0144 17.7432C29.506 18.4537 30.013 18.9175 30.013 19.5509C29.9978 20.5237 28.8077 20.9721 27.6978 20.9721C26.1586 20.9721 25.3339 20.7409 24.0806 20.1997L23.573 19.9677L23.0335 23.2272C23.9377 23.6284 25.6036 23.9844 27.3331 24C31.3782 24 34.0117 22.0534 34.0429 19.0411C34.0583 17.3882 33.0281 16.1216 30.8069 15.0866C29.4585 14.4223 28.6328 13.9743 28.6328 13.2945C28.6486 12.6765 29.3312 12.0435 30.8533 12.0435C32.1066 12.0125 33.0274 12.3059 33.725 12.5995L34.0737 12.7537L34.598 9.61819Z" fill="white"/>
<path d="M39.7219 18.6395C40.0394 17.8053 41.2611 14.5768 41.2611 14.5768C41.245 14.6078 41.5779 13.7273 41.7683 13.1867L42.0377 14.4378C42.0377 14.4378 42.7678 17.9135 42.9263 18.6395C42.3238 18.6395 40.4834 18.6395 39.7219 18.6395ZM44.4806 9.26318H41.4987C40.5791 9.26318 39.8804 9.52557 39.4837 10.4679L33.7573 23.7834H37.8024C37.8024 23.7834 38.4684 21.9912 38.6115 21.6052C39.0553 21.6052 42.9904 21.6052 43.5613 21.6052C43.6719 22.115 44.0213 23.7834 44.0213 23.7834H47.5908L44.4806 9.26318Z" fill="white"/>
<path fill-rule="evenodd" clip-rule="evenodd" d="M13.5475 9.26318L9.77201 19.1647L9.35944 17.1566C8.66143 14.8394 6.47232 12.3219 4.02939 11.0701L7.48761 23.7682H11.5644L17.624 9.26318H13.5475Z" fill="white"/>
<path fill-rule="evenodd" clip-rule="evenodd" d="M6.26607 9.26318H0.0634555L0 9.55657C4.83843 10.7615 8.04282 13.6661 9.35937 17.1572L8.01099 10.4838C7.789 9.55637 7.1068 9.29377 6.26607 9.26318Z" fill="white"/>
</svg>
