<svg id="abd93f73-2b15-44d2-b5d8-2373583ea71c" data-name="Layer 1" xmlns="http://www.w3.org/2000/svg" viewBox="0 0 530.39 86.62"><path d="M65.87,84.24c8.8.39,16.22-5.37,17.75-13a0,0,0,0,1,0,0c7.45-1.76,13-8,13-15.49a15,15,0,0,0-2.33-8,6.21,6.21,0,0,1,0-6.61,15,15,0,0,0,2.33-8c0-7.38-5.39-13.58-12.71-15.42a.08.08,0,0,1,0,0c-.47-8.44-8-15.15-17.16-15.15C59,2.36,52.44,7.09,50.26,13.61h0a14.84,14.84,0,0,0-.77,4.73V67.8C49.49,76.42,56.61,83.83,65.87,84.24Z" fill="none" stroke="#7e4a9d" stroke-miterlimit="10" stroke-width="4.72"/><path d="M79.5,50.73a5.27,5.27,0,0,0-4.58,2.66c-4.18-1-6.78-4.84-6.78-9.48s2.57-8.48,6.7-9.47A5.29,5.29,0,1,0,76,28a13.86,13.86,0,0,0-7.88,3V24.65a3.55,3.55,0,0,0-.06-.57,5.28,5.28,0,1,0-7,0,3.55,3.55,0,0,0,0,.57V62.59a5.28,5.28,0,0,0,3.57,9.17,5.29,5.29,0,0,0,5.29-5.29,5.24,5.24,0,0,0-1.71-3.88V56.9a13.82,13.82,0,0,0,7.71,2.93,5.28,5.28,0,1,0,3.65-9.1Z" fill="#7d4a9d"/><path d="M33.11,2.38C24.31,2,16.89,7.75,15.36,15.43c0,0,0,0,0,0-7.45,1.76-13,8-13,15.48a15,15,0,0,0,2.33,8,6.21,6.21,0,0,1,0,6.61,15.1,15.1,0,0,0-2.33,8c0,7.39,5.39,13.59,12.71,15.43a0,0,0,0,1,0,0c.48,8.44,8,15.15,17.17,15.15C40,84.26,46.55,79.53,48.72,73h0a14.9,14.9,0,0,0,.77-4.74V18.82C49.49,10.2,42.37,2.78,33.11,2.38Z" fill="none" stroke="#7e4a9d" stroke-miterlimit="10" stroke-width="4.72"/><path d="M38.68,66.44A5.24,5.24,0,0,0,37,62.56V24.06a5.24,5.24,0,0,0,1.71-3.88,5.29,5.29,0,1,0-10.57,0,5.24,5.24,0,0,0,1.71,3.88v6.53A16,16,0,0,0,22.11,28,5.29,5.29,0,1,0,23,34.42c4.18,1,6.78,4.84,6.78,9.49s-2.57,8.48-6.7,9.46a5.29,5.29,0,1,0-4.66,7.78,5.22,5.22,0,0,0,3.47-1.31,16,16,0,0,0,7.89-2.61v5.33a5.28,5.28,0,0,0,3.57,9.17A5.29,5.29,0,0,0,38.68,66.44Z" fill="#7d4a9d"/><path d="M183.05,37.49V70.63h-16.2V39.86c0-6.7-4.21-9.83-9.39-9.83-5.94,0-10,3.46-10,11.13V70.63h-16.2v-54h16.2v5.08c2.91-4,8.31-6.59,15.44-6.59C173.76,15.13,183.05,22.91,183.05,37.49Z" fill="#000000"/><path d="M224.29,57.68a14.09,14.09,0,0,0,10.37-4.11l13,7.45c-5.29,7.35-13.29,11.13-23.54,11.13-18.47,0-29.91-12.42-29.91-28.51s11.66-28.51,28.72-28.51c15.76,0,27.43,12.21,27.43,28.51a31.5,31.5,0,0,1-.65,6.48H211.34C213.39,55.73,218.35,57.68,224.29,57.68ZM234.23,38c-1.73-6.26-6.59-8.53-11.45-8.53-6.15,0-10.26,3-11.77,8.53Z" fill="#000000"/><path d="M313.26,16.64v54h-16.2V65.56c-2.91,4-8.31,6.59-15.44,6.59-10.9,0-20.19-7.78-20.19-22.36V16.64h16.2V47.42c0,6.69,4.21,9.82,9.39,9.82,5.94,0,10-3.45,10-11.12V16.64Z" fill="#000000"/><path d="M360.23,15.56V33.92c-6.7-1.08-16.2,1.62-16.2,12.31v24.4h-16.2v-54H344v9.61C346.19,19,353.42,15.56,360.23,15.56Z" fill="#000000"/><path d="M396.29,57.68a14.08,14.08,0,0,0,10.36-4.11l13,7.45c-5.29,7.35-13.28,11.13-23.54,11.13-18.46,0-29.91-12.42-29.91-28.51s11.66-28.51,28.72-28.51c15.77,0,27.43,12.21,27.43,28.51a31.5,31.5,0,0,1-.65,6.48H383.33C385.38,55.73,390.35,57.68,396.29,57.68ZM406.22,38c-1.73-6.26-6.59-8.53-11.44-8.53-6.16,0-10.26,3-11.77,8.53Z" fill="#000000"/><path d="M453.08,32.19V51.31c0,4.64,4,5.07,11.12,4.64V70.63c-21.16,2.16-27.32-4.21-27.32-19.32V32.19h-8.64V16.64h8.64V6.39l16.2-4.86V16.64H464.2V32.19Z" fill="#000000"/><path d="M530.39,16.64v54h-16.2V65.56c-3.56,4.1-8.85,6.59-16.09,6.59-14.15,0-25.81-12.42-25.81-28.51S484,15.13,498.1,15.13c7.24,0,12.53,2.49,16.09,6.59V16.64Zm-16.2,27c0-8.1-5.4-13.17-12.85-13.17s-12.85,5.07-12.85,13.17,5.4,13.17,12.85,13.17S514.19,51.74,514.19,43.64Z" fill="#000000"/></svg>