<svg width="339" height="359" viewBox="0 0 339 359" fill="none" xmlns="http://www.w3.org/2000/svg">
<rect width="68.3371" height="84.0666" transform="matrix(-1 0 0 1 157.563 245.664)" fill="#E7AFF0"/>
<path fill-rule="evenodd" clip-rule="evenodd" d="M177.495 163.437C170.129 157.834 151.635 155.314 143.773 160.709C136.008 166.127 135.161 174.889 131.543 182.949C128.129 181.341 122.491 183.644 121.501 186.809C120.273 188.302 120.218 192.495 119.371 194.502C82.5342 200.359 76.9417 229.049 72.5078 261.62C66.6422 294.671 53.3266 327.65 59.1072 361.66C58.354 362.748 57.7602 363.807 57.2111 365.063C55.8954 367.3 57.59 370.465 60.2439 370.343C63.6789 370.041 67.08 369.63 70.5311 369.502C80.0983 369.17 89.6741 369.209 99.2449 369.331L100.55 369.348C148.784 369.948 197.015 371.13 245.251 371.443C247.001 371.446 247.857 369.878 247.624 368.331C247.153 365.217 246.717 362.102 246.261 358.987C257.67 361.997 269.799 362.755 281.175 359.304C281.971 358.494 279.321 358.933 278.901 358.81C289.371 351.662 286.244 336.606 285.317 325.761C279.549 288.602 277.516 247.487 255.234 215.778C245.594 202.838 231.462 192.593 215.222 190.287L214.772 190.226C210.023 189.593 204.731 189.39 200.579 186.809C195.91 183.085 193.92 176.205 189.008 176.14C187.386 176.119 185.179 178.169 182.805 179.561C182.627 176.499 180.976 173.915 180.611 171.541L180.581 171.338C180.201 168.571 180.722 166.081 177.495 163.437ZM98.3293 262.602C108.682 255.417 135.423 259.027 136.036 259.429C137.384 260.315 137.964 260.393 138.693 261.543C139.413 261.639 140.132 261.738 140.851 261.84C142.292 262.31 141.224 264.082 139.559 263.45C140.56 267.764 137.613 270.833 136.439 275.099C136.058 276.484 136.426 278.975 136.439 280.39C136.326 282.195 134.329 284.326 134.661 286.136C135.845 292.572 142.266 298.85 139.559 305.092C137.765 308.617 132.371 310.414 128.785 311.613C121.355 314.462 108.408 311.506 104.091 305.092C101.788 301.671 99.1203 293.041 97.7473 290.365L97.443 286.118C96.6925 275.563 96.0249 264.201 98.3293 262.602Z" fill="#F0D5C2"/>
<path fill-rule="evenodd" clip-rule="evenodd" d="M189.391 176.16L186.428 177.976L169.222 186.472C165.886 187.405 164.219 188.524 164.219 189.827V203.099C164.219 204.875 161.088 208.9 154.828 215.174L149.044 209.414L149.174 208.66C149.724 205.41 149.999 203.237 149.999 202.139C149.999 200.958 144.341 196.476 133.024 188.692L128.073 184.036L128.601 182.432C125.548 182.576 122.237 184.454 121.501 186.809C120.273 188.302 120.218 192.495 119.371 194.502C82.5342 200.36 76.9417 229.049 72.5078 261.62C66.6422 294.671 53.3266 327.65 59.1072 361.66C58.354 362.748 57.7602 363.807 57.2111 365.063C55.8954 367.3 57.59 370.465 60.2439 370.343C63.6789 370.042 67.08 369.63 70.5311 369.502C80.0983 369.17 89.6741 369.209 99.2449 369.331L100.55 369.348C148.784 369.948 197.015 371.13 245.251 371.443C247.001 371.446 247.857 369.878 247.624 368.331C247.153 365.218 246.717 362.102 246.261 358.987C257.67 361.997 269.799 362.755 281.175 359.304C281.971 358.494 279.321 358.933 278.901 358.81C289.371 351.663 286.244 336.606 285.317 325.761C279.549 288.602 277.516 247.487 255.234 215.778C245.594 202.838 231.462 192.593 215.222 190.288L214.772 190.226L214.318 190.167C209.688 189.578 204.599 189.308 200.579 186.809C196.033 183.184 194.027 176.566 189.391 176.16ZM148.163 254.057C149.85 254.057 153.307 256.675 158.531 261.911L158.992 262.124C165.308 265.054 169.492 267.596 171.544 269.75L171.617 269.828C173.691 272.05 177.796 277.958 183.934 287.553L192.823 292.805H196.186L198.581 310.156L192.823 322.545L179.781 318.156L158.531 312.561L146.338 300.203L139.459 297.896C140.294 300.304 140.596 302.701 139.559 305.092C137.765 308.617 132.371 310.414 128.785 311.613C121.355 314.462 108.408 311.506 104.091 305.092C101.788 301.671 99.1205 293.041 97.7475 290.364L97.3537 284.849C96.644 274.67 96.1172 264.137 98.3295 262.602C108.682 255.417 135.424 259.027 136.036 259.429C137.384 260.315 137.964 260.393 138.693 261.543L139.071 261.594L136.948 258.719L137.7 258.318C143.062 255.477 146.549 254.057 148.163 254.057ZM139.559 263.45C140.518 267.58 137.857 270.569 136.599 274.56L139.814 268.411L139.814 263.529C139.731 263.509 139.646 263.482 139.559 263.45Z" fill="#B8F1D6"/>
<path fill-rule="evenodd" clip-rule="evenodd" d="M190.811 175.518C190.097 174.886 189.039 175.68 189.493 176.534C190.514 178.454 191.561 180.273 192.931 181.969C193.761 182.998 194.651 183.971 195.552 184.933C193.239 186.933 191.254 189.415 189.381 191.742C186.985 194.717 184.719 197.819 182.03 200.541C179.377 203.226 176.444 205.103 172.898 206.355L172.182 206.604C168.619 207.853 164.811 209.54 162.803 212.91C162.407 213.574 163.205 214.395 163.875 213.981C167.364 211.822 171.464 211.388 175.263 209.962C178.932 208.585 182.13 206.464 184.956 203.758C187.777 201.057 190.146 197.983 192.617 194.975C195.06 192 197.691 189.459 200.581 186.942C205.041 189.94 210.132 191.244 215.309 192.525L215.874 192.665C221.057 193.946 226.212 195.435 231.074 197.667C235.361 199.635 239.578 201.985 243.07 205.188C246.777 208.586 249.662 212.926 252.303 217.171C258.21 226.668 262.362 237.072 266.018 247.602C269.821 258.555 273.001 269.728 275.569 281.033C276.875 286.783 277.935 292.575 278.807 298.407C279.226 301.215 279.599 304.03 279.926 306.851C280.276 309.864 280.356 312.963 281.281 315.859C281.678 317.1 282.614 317.616 283.552 317.572L283.742 319.95C283.994 323.122 284.23 326.294 284.309 329.485C284.441 334.79 284.381 340.081 283.999 345.375L283.945 346.097C283.645 349.962 282.974 354.303 280.065 357.133C277.053 360.063 272.421 360.984 268.361 361.037C258.905 361.16 249.803 356.697 241.435 352.781C232.818 348.749 224.435 344.273 216.254 339.418C212.088 336.946 207.966 334.392 203.897 331.763C201.901 330.472 199.918 329.16 197.95 327.826C196.823 327.063 195.755 326.225 194.608 325.548C195.17 325.025 195.421 324.203 194.95 323.485C198.267 320.609 199.647 315.476 199.809 311.323C199.939 307.971 199.445 304.628 199.056 301.308C198.859 299.633 198.616 297.962 198.364 296.295C198.264 295.636 198.188 294.932 198.072 294.236C207.028 299.153 216.235 303.532 225.686 307.422C230.531 309.416 235.437 311.209 240.412 312.851L241.42 313.183C246.133 314.724 250.959 316.18 255.831 317.061C256.092 317.108 256.304 316.724 256.025 316.601C251.277 314.508 246.364 312.743 241.545 310.815L240.753 310.493C240.844 310.488 240.938 310.476 241.036 310.452C243.863 309.771 246.667 308.72 249.44 307.836C252.013 307.015 254.903 306.5 257.308 305.261C257.493 305.166 257.39 304.909 257.21 304.896C254.506 304.709 251.572 305.496 248.922 305.959L247.926 306.133C246.258 306.427 244.554 306.743 242.894 307.155C242.834 306.6 242.523 306.042 242.081 305.715C237.218 302.117 237.712 294.85 237.192 289.492L236.806 285.513C236.128 278.551 235.41 271.59 234.32 264.679C234.261 264.31 233.69 264.416 233.688 264.765C233.631 273.331 234.279 281.857 234.603 290.41L234.653 291.813C234.833 297.09 234.973 302.57 238.3 306.631C237.835 306.359 237.206 306.359 236.829 306.807C236.366 307.358 236.099 307.976 236.107 308.583C233.101 307.323 230.107 306.031 227.128 304.713C217.551 300.475 208.175 295.731 199.047 290.599C198.064 290.047 197.131 290.481 196.645 291.209L196.575 291.199C196.563 291.197 196.551 291.196 196.539 291.196L196.469 291.193C196.467 291.193 196.464 291.193 196.462 291.193C195.177 290.488 193.426 290.99 192.324 292.019C192.291 292.05 192.263 292.083 192.234 292.116C190.838 291.49 189.535 290.645 188.352 289.574C185.931 287.382 183.881 284.672 182.093 281.955C178.801 276.949 176.005 271.383 171.559 267.263C167.946 263.916 163.466 261.832 158.767 260.523C158.787 260.386 158.735 260.24 158.64 260.143C158.398 259.896 158.226 259.81 157.914 259.96C157.889 259.972 157.874 259.989 157.864 260.007L157.406 259.224C157.155 258.8 156.898 258.372 156.809 258.259C156.276 257.588 155.727 256.922 155.169 256.271C154.224 255.167 153.147 254.077 151.9 253.312C149.17 251.636 146.299 252.584 143.492 253.5C141.796 254.054 140.105 254.625 138.412 255.187L138.237 255.244C136.975 255.649 135.497 256.004 134.933 257.34C134.709 257.869 134.675 258.418 134.779 258.95C122.787 255.904 109.469 257.303 97.7667 260.88C97.3176 261.017 96.8691 261.386 96.7745 261.87C95.4337 268.739 94.8366 275.783 95.4433 282.769C95.9667 288.799 97.3042 294.709 99.8246 300.229L99.9679 300.541C102.337 305.657 106.091 311.964 111.824 313.568C115.286 314.536 119.115 313.965 122.646 313.788C126.077 313.615 129.585 313.59 132.984 313.051C136.011 312.571 138.663 311.216 140.534 308.757C142.148 306.636 142.998 304.072 143.694 301.522C144.013 301.623 144.329 301.731 144.641 301.852C145.956 302.366 147.07 303.194 148.078 304.168C150.205 306.226 151.855 308.726 154.081 310.69C156.096 312.468 158.392 313.85 160.855 314.914C165.958 317.116 171.433 317.997 176.831 319.164L177.208 319.246C181.271 320.137 185.419 321.23 189.006 323.344C189.076 323.966 189.36 324.552 189.815 324.935C189.182 325.529 188.914 326.468 189.47 327.35C191.023 329.812 193.698 331.213 196.1 332.787L196.256 332.89C198.618 334.455 201.001 335.988 203.403 337.49C208.287 340.545 213.272 343.431 218.328 346.19C226.46 350.628 234.767 354.815 243.224 358.612C242.717 361.107 242.902 363.679 242.521 366.191L242.462 366.549C242.299 367.481 242.519 368.261 243.162 368.87L243.23 368.932L243.229 368.924L243.289 368.979L243.309 368.996L243.302 368.99C243.377 369.058 243.453 369.121 243.531 369.175L243.63 369.239C244.249 369.615 245.046 369.61 245.68 369.279L245.752 369.239L245.874 369.169C246.711 368.688 247.289 367.496 246.941 366.549C246.088 364.221 245.765 361.737 244.977 359.394L245.602 359.673L246.426 360.032C255.342 363.884 265.246 367.127 274.961 364.501C279.253 363.341 283.265 360.886 285.413 356.885C287.526 352.949 287.825 348.377 287.937 343.998C288.076 338.593 287.786 333.106 287.072 327.747C286.593 324.15 286.014 320.485 285.121 316.925C285.58 316.52 285.918 315.939 286.007 315.22C286.429 311.82 285.691 308.285 285.239 304.903C284.798 301.6 284.31 298.304 283.759 295.019C282.645 288.383 281.352 281.761 279.846 275.204C277.165 263.532 273.626 252.069 269.364 240.879L268.991 239.904C265.053 229.676 260.494 219.667 254.145 210.682C251.108 206.383 247.898 202.486 243.607 199.388C239.587 196.485 235.052 194.396 230.372 192.798C225.687 191.2 220.872 190.129 215.972 189.463C210.995 188.786 205.742 188.371 201.1 186.332C201.687 185.28 201.183 183.86 200.195 183.208C196.868 181.013 193.793 178.157 190.811 175.518ZM84.3353 270.979C84.1959 270.767 83.8649 270.901 83.9261 271.151C85.5438 277.772 87.0625 284.406 88.0541 291.153C89.8442 303.33 89.5149 315.667 89.3686 327.935L89.3612 328.569C89.286 335.177 89.1815 341.786 88.9628 348.391C88.8524 351.729 88.6339 355.1 88.7527 358.44C88.8175 360.252 89.3009 361.966 89.4722 363.756C89.6223 365.321 89.4886 366.911 89.4137 368.478C89.3636 369.52 90.9034 369.476 91.0081 368.478L91.1421 367.188C91.3161 365.554 91.5311 363.931 92.0669 362.368C92.7112 360.488 93.0204 358.641 93.2439 356.667C93.5863 353.642 93.7385 350.587 93.8706 347.541L93.961 345.434C94.5128 332.703 94.4934 319.913 93.6001 307.196L93.5349 306.287C92.6503 294.267 91.1156 281.278 84.3353 270.979ZM118.819 195.215C119.241 195.042 119.093 194.404 118.625 194.515L117.774 194.718C111.539 196.21 105.417 197.826 99.597 200.602C93.7734 203.38 88.843 207.527 84.9254 212.626C77.3098 222.539 74.1451 234.585 71.6468 246.621C68.8703 259.994 66.3425 273.416 63.5418 286.786L63.0218 289.276C60.4303 301.728 57.9836 314.187 56.1808 326.786L56.0513 327.7C54.2333 340.656 53.1398 354.061 55.1235 367.051C55.516 369.621 59.797 368.981 59.6296 366.442C59.1462 359.102 58.8 351.8 59.1345 344.443C59.4694 337.085 60.1602 329.759 61.19 322.465C62.0567 316.327 63.3486 310.265 64.4918 304.176L64.6711 303.214C65.6284 298.035 66.6153 292.861 67.6 287.686L69.0716 279.939C71.2772 268.339 73.526 256.728 76.0669 245.201L76.2177 244.523C78.7044 233.432 82.3704 221.815 89.8293 213.009C97.3986 204.071 108.234 199.57 118.819 195.215ZM146.323 312.848C146.14 312.443 145.504 312.488 145.308 312.848C144.541 314.262 144.456 316.067 144.311 317.663L144.295 317.827C144.111 319.775 143.948 321.729 143.848 323.682C143.658 327.391 143.568 331.094 143.579 334.807C143.591 338.612 143.668 342.413 143.873 346.212L143.929 347.23C144.116 350.532 144.431 354.215 146.001 357.101C146.572 358.151 148.125 357.842 148.455 356.781C149.539 353.306 148.982 349.186 148.704 345.627L148.489 342.851C148.275 340.073 148.071 337.295 147.91 334.515C147.688 330.71 147.506 326.903 147.33 323.097C147.273 321.861 147.211 320.624 147.146 319.388L147.046 317.534C146.96 315.984 146.967 314.282 146.323 312.848ZM268.12 317.773L267.641 317.31C266.169 315.871 264.308 313.655 262.132 313.792C261.264 313.847 260.711 314.567 260.891 315.419C261.276 317.243 263.137 318.189 264.478 319.302C265.946 320.521 267.33 321.824 268.711 323.14C269.936 324.306 271.114 325.506 272.264 326.743L272.694 327.208C273.106 327.658 276.042 330.31 275.725 330.999L275.707 331.029C275.619 331.161 275.766 331.342 275.913 331.296C277.18 330.896 277.101 329.811 276.622 328.711C275.701 326.598 274.088 324.643 272.68 322.839C271.276 321.039 269.756 319.363 268.12 317.773ZM141.729 264.783C142.709 262.469 146.32 262.517 148.371 262.656C153.533 263.004 159.119 264.309 163.712 266.719C168.475 269.219 171.683 273.223 174.553 277.65L174.687 277.858C177.485 282.203 180.179 287.345 184.56 290.332C186.791 291.854 189.397 293.244 192.104 293.846C192.29 294.172 192.591 294.43 192.986 294.524L193.169 294.566C193.94 294.736 195.138 294.925 196.173 294.812C196.166 295.318 196.171 295.819 196.159 296.298C196.122 297.671 196.107 299.05 196.107 300.424C196.106 303.302 196.261 306.186 196.141 309.064C196.034 311.609 195.674 314.269 194.451 316.544C193.553 318.214 192.369 319.319 190.939 320.373C187.422 318.232 183.445 316.927 179.409 315.946C174.527 314.759 169.529 313.967 164.759 312.357C162.463 311.583 160.255 310.569 158.255 309.192C156.133 307.73 154.511 305.751 152.843 303.816L152.582 303.516C150.88 301.565 149.022 299.699 146.617 298.642C144.545 297.731 141.814 297.568 140.002 296.159C139.055 295.421 138.976 294.351 138.876 293.255C140.036 293.421 141.264 293.155 142.421 293.02L143.02 292.95C144.113 292.82 145.182 292.677 146.258 292.399C146.458 292.348 146.458 292.047 146.258 291.995C144.986 291.667 143.725 291.527 142.421 291.375L142.114 291.336C140.934 291.182 139.694 290.948 138.537 291.208C138.329 290.419 138.029 289.665 137.608 288.91C137.018 287.85 135.9 286.647 135.749 285.409C135.704 285.039 135.79 284.603 135.965 284.276L136.025 284.164C136.098 284.033 136.185 283.9 136.313 283.818C136.327 283.834 136.356 283.853 136.421 283.874C137.312 284.154 138.089 283.718 138.501 283.047C140.252 283.264 142.163 283.191 143.805 283.263L145.465 283.344C147.239 283.425 149.093 283.46 150.76 283.102C150.993 283.053 151.063 282.666 150.83 282.566C148.781 281.69 146.295 281.411 144.101 281.075C142.876 280.887 141.642 280.744 140.413 280.578C139.594 280.468 138.726 280.286 137.878 280.242C135.753 277.599 136.898 273.429 139.856 272.291C140.934 272.764 141.903 272.488 143.08 272.387C144.255 272.287 145.433 272.218 146.613 272.223C148.978 272.234 151.483 272.855 153.824 272.588C154.205 272.544 154.559 272.038 154.18 271.729C152.388 270.268 149.82 269.791 147.545 269.48L147.073 269.417C146.31 269.317 145.383 269.171 144.421 269.085C144.203 268.661 143.813 268.34 143.227 268.261C143.052 268.237 142.877 268.223 142.702 268.208L142.705 268.191C141.275 268.122 141.337 265.709 141.729 264.783ZM239.63 309.925C239.655 309.964 239.683 310.001 239.712 310.037L239.758 310.089L239.522 309.994L239.63 309.925ZM116.775 259.611C122.794 258.965 128.822 259.102 134.859 259.275C135.341 260.853 137.022 262.197 138.651 262.248C137.375 264.187 137.244 266.812 138.138 268.868C136.239 269.623 134.603 270.98 133.61 272.911C132.233 275.589 132.413 278.569 133.774 281.044C132.612 282.095 131.927 283.801 131.996 285.409C132.072 287.202 133.142 288.734 134.031 290.218C134.992 291.824 135.024 293.237 135.319 295.036C135.751 297.667 137.528 299.263 139.814 300.26L139.692 300.738C139.103 303.03 138.369 305.448 136.685 307.124C134.518 309.28 131.156 309.26 128.293 309.396L128.155 309.403C125.533 309.534 122.912 309.688 120.291 309.836L118.326 309.946C115.308 310.112 112.41 310.131 109.947 308.139C105.925 304.886 103.168 299.502 101.423 294.736C97.7601 284.733 97.7163 273.755 99.3976 263.337C105.036 261.521 110.887 260.243 116.775 259.611ZM166.831 276.208L166.787 276.211C165.547 276.352 164.696 277.355 164.393 278.544C163.952 280.272 164.168 281.835 163.109 283.395C162.018 285 161.348 286.284 161.19 288.266C161.125 289.082 161.155 289.895 160.973 290.694L160.841 291.253C160.701 291.85 160.587 292.424 160.656 293.064C160.72 293.648 161.004 294.103 161.591 294.29C163.502 294.901 164.977 293.494 165.471 291.716C165.897 290.179 165.328 288.348 165.929 286.905C166.263 286.106 166.877 285.437 167.225 284.631C167.569 283.833 167.741 283 167.797 282.132C167.901 280.491 166.449 278.52 167.259 277.033C167.432 276.716 167.236 276.198 166.831 276.208ZM192.212 259.276C190.918 259.013 189.45 258.411 188.174 258.911C187.518 259.169 187.194 259.968 187.748 260.523C188.71 261.487 190.109 261.54 191.404 261.767L191.519 261.788C193.051 262.071 194.586 262.34 196.123 262.594C199.015 263.073 201.914 263.496 204.823 263.855C207.811 264.225 210.807 264.554 213.807 264.801L214.968 264.896C217.503 265.099 220.14 265.251 222.627 264.864C222.988 264.807 222.93 264.282 222.627 264.19C219.902 263.366 216.914 263.145 214.098 262.796C211.103 262.425 208.114 262.033 205.133 261.568C202.156 261.104 199.183 260.605 196.221 260.054C194.883 259.806 193.546 259.546 192.212 259.276ZM145.523 256.631C146.659 256.229 147.908 255.634 149.138 255.833C151.26 256.177 153.148 258.242 154.828 259.602L153.985 259.438C149.67 258.61 143.956 257.717 140.334 260.458C140.324 260.442 140.317 260.426 140.307 260.41C140.014 259.967 139.676 259.621 139.306 259.241C139.271 259.208 139.236 259.173 139.203 259.139L139.003 258.926L139.46 258.768C140.437 258.423 141.594 257.978 141.777 257.913L141.79 257.908C143.036 257.487 144.283 257.07 145.523 256.631ZM180.976 166.282C181.153 164.001 177.599 164.019 177.423 166.282C177.039 171.222 178.151 176.114 180.546 180.445C180.564 180.477 180.583 180.505 180.602 180.535C179.104 181.313 177.589 182.06 176.04 182.728C174.059 183.582 172.04 184.36 169.986 185.02C168.127 185.618 165.838 185.854 164.275 187.097C160.98 189.718 162.218 195.157 162.852 198.683L162.951 199.239C163.266 201.054 163.495 202.915 162.729 204.656C161.911 206.516 160.258 207.896 158.783 209.227L158.485 209.496C157.178 210.686 155.685 212.131 154.726 213.743C153.851 211.936 152.659 210.459 151.398 208.796C150.498 207.61 151.138 207.219 151.785 206.06C152.407 204.944 152.711 203.755 152.516 202.482C152.157 200.132 150.277 198.434 148.405 197.159C146.195 195.653 143.728 194.538 141.443 193.137C136.747 190.259 132.175 186.968 128.055 183.314C127.941 183.213 127.745 183.345 127.836 183.483C131.09 188.428 134.906 192.701 139.595 196.327C141.497 197.798 143.494 199.018 145.505 200.3L146.083 200.671C146.891 201.193 147.898 201.892 148.263 202.781C148.63 203.676 147.847 204.351 147.425 205.092C146.086 207.446 146.732 209.642 148.32 211.637L148.394 211.729C149.971 213.671 151.167 215.477 151.738 217.958C152.967 223.287 151.256 228.838 149.464 233.841L149.394 234.039C148.425 236.735 147.395 239.412 146.553 242.152L146.321 242.91C145.559 245.431 144.934 247.917 145.79 250.509C146.081 251.39 147.284 251.599 147.784 250.769C149.547 247.844 149.987 244.323 151.092 241.106C152.17 237.971 153.406 234.893 154.447 231.745C155.787 227.693 156.684 223.33 156.197 219.079C156.211 219.054 156.227 219.031 156.239 219.005L156.58 218.259C157.51 216.241 158.409 214.479 160.1 212.87C161.864 211.192 163.779 209.707 165.167 207.675C168.183 203.263 166.318 198.355 165.954 193.53L165.912 192.939C165.846 191.937 165.81 190.576 166.465 189.882C167.201 189.102 168.929 188.903 169.907 188.557C172.433 187.664 174.923 186.623 177.294 185.374C179.551 184.184 181.738 182.87 183.774 181.331L184.805 180.555C186.433 179.328 188.122 177.988 189.213 176.318C189.339 176.125 189.125 175.815 188.897 175.907C187.075 176.646 185.411 177.82 183.707 178.842C183.68 178.78 183.649 178.717 183.614 178.654C181.506 174.842 180.639 170.618 180.976 166.282ZM122.79 192.401C122.064 190.413 118.756 190.566 118.888 192.928C118.989 194.743 119.76 196.381 120.466 198.029L120.541 198.205C121.269 199.922 122.11 201.534 123.116 203.108C125.039 206.116 127.291 208.907 129.697 211.541C131.878 213.93 134.74 215.39 138.038 215.148C139.428 215.045 140.831 214.692 142.049 213.999C143.495 213.175 145.066 210.701 146.911 211.3C147.09 211.358 147.256 211.097 147.102 210.973C144.972 209.259 142.554 211.916 140.514 212.557C137.441 213.521 134.287 212.455 132.308 209.973C130.243 207.381 128.342 204.48 126.606 201.658C125.725 200.225 124.921 198.739 124.226 197.206C123.525 195.659 123.365 193.978 122.79 192.401ZM127.744 180.166C127.833 179.891 127.492 179.63 127.25 179.787C125.851 180.697 124.637 181.9 123.346 182.955C121.914 184.124 120.47 185.27 119.005 186.399C116.869 188.044 119.346 191.073 121.227 189.275C123.8 186.817 126.619 183.602 127.744 180.166ZM135.429 170.543C134.861 168.352 131.497 169.256 131.987 171.421L132.003 171.487C132.932 175.063 131.609 178.704 128.787 181.022L128.683 181.107C126.897 182.534 129.427 185.03 131.195 183.616C135.055 180.53 136.661 175.288 135.429 170.543Z" fill="black"/>
<path fill-rule="evenodd" clip-rule="evenodd" d="M192.127 33.5654C173.362 32.5399 156.737 27.2618 143.528 39.0744C143.528 39.0744 122.16 23.0996 118.594 29.1838C116.205 33.2607 119.519 38.7335 118.63 43.7643C112.838 53.6497 113.165 70.3819 112.838 74.3031C112.012 84.1864 106.813 121.377 106.813 130.209C106.813 134.717 110.525 146.523 112.838 153.094C117.984 167.718 127.808 175.171 143.918 175.171C160.029 175.171 186.324 161.691 194.758 149.723C195.497 148.674 200.276 151.734 205.276 146.426C210.691 140.676 213.696 129.708 213.696 123.17C213.696 114.873 219.052 109.12 218.429 98.4998C217.037 74.7827 212.206 34.6627 192.127 33.5654Z" fill="#F0D5C2"/>
<path fill-rule="evenodd" clip-rule="evenodd" d="M118.576 29.1263C116.187 33.2032 119.5 38.676 118.611 43.7068C116.376 47.5215 115.052 52.3558 114.25 57.08L118.63 59.4072L120.251 59.6452C146.53 63.5238 163.302 67.0144 170.568 70.1171C177.908 73.2514 186.815 84.2596 197.29 103.142L197.608 103.717L199.684 117.809L209.199 120.73L213.679 122.856C213.787 114.696 219.027 108.952 218.41 98.4423C217.019 74.7252 212.187 34.6052 192.108 33.5079C173.343 32.4824 156.718 27.2043 143.509 39.0169C129.264 28.367 120.953 25.0702 118.576 29.1263Z" fill="#F1D8F1"/>
<path fill-rule="evenodd" clip-rule="evenodd" d="M194.223 5.991C193.979 5.9761 193.732 5.98802 193.485 6.01217C193.214 6.02409 192.943 6.05062 192.672 6.10458C191.293 6.3696 190.063 7.09996 189.11 8.12844C189.083 8.15527 189.063 8.18538 189.039 8.21191C188.592 8.54877 188.178 8.93065 187.806 9.33578C187.74 9.27317 187.678 9.21087 187.609 9.14827C187.413 8.97507 187.207 8.81111 186.993 8.65639C186.096 7.88621 185.043 7.32631 183.911 7.00776L183.756 6.96582C183.726 6.95687 183.696 6.95091 183.667 6.94495C182.863 6.67695 182.017 6.53982 181.165 6.5425C180.147 6.50971 179.125 6.67695 178.173 7.07015C177.044 7.53848 176.061 8.27749 175.236 9.16615C174.694 9.60735 174.221 10.093 173.721 10.6269C172.687 11.7326 171.871 13.0264 171.356 14.4516C171.285 14.6513 171.222 14.8567 171.166 15.0624C169.906 14.9167 168.64 14.8123 167.375 14.7613C165.954 14.6752 164.534 14.6451 163.11 14.6931C159.189 14.821 155.353 15.5129 151.64 16.7798C150.895 17.0001 150.172 17.2804 149.475 17.6262C148.382 18.0614 147.349 18.6159 146.375 19.2866L145.545 19.7791C145.129 20.027 144.712 20.2781 144.308 20.5357C143.346 21.1531 142.435 21.8444 141.572 22.5897C140.66 23.3263 139.8 24.1282 138.981 24.9686C138.758 25.196 138.544 25.4265 138.332 25.6584C136.444 26.6782 134.768 27.9839 133.204 29.5413C131.963 28.827 130.679 28.1795 129.353 27.6039C127.987 27.0106 126.251 26.3995 124.818 25.9973C123.532 25.6366 122.26 25.3892 120.971 25.2071C120.384 25.1057 119.795 25.0252 119.202 24.9566L119.226 24.9659C118.809 24.9209 118.395 24.8821 117.975 24.8464L117.987 24.8434C117.808 24.8288 117.627 24.8136 117.448 24.8016L117.013 24.7662C116.882 24.7542 116.692 25.061 116.68 25.1683L116.665 25.2786C116.567 25.3892 116.477 25.5114 116.415 25.586C116.337 25.5797 116.26 25.574 116.182 25.5708C115.95 25.5502 115.682 25.9643 115.545 26.1223L115.421 26.2679C115.28 26.4378 115.139 26.6334 115.116 26.8467C114.964 28.0841 114.822 29.3239 114.69 30.5641C114.64 31.5031 114.69 32.4332 114.845 33.3544C114.961 34.2487 115.081 35.143 115.2 36.0344C115.39 36.6607 115.578 37.2867 115.766 37.9124C115.84 38.1512 115.923 38.3864 116.004 38.6219C116.48 40.1948 117.038 41.7258 117.703 43.2095C117.218 43.7467 116.766 44.3036 116.345 44.8786C116.244 44.9821 116.143 45.0849 116.048 45.1922C116.022 45.1508 115.983 45.112 115.941 45.0909C115.798 45.0283 115.694 45.1028 115.605 45.2253C114.667 46.1223 113.985 47.169 113.562 48.3641L113.299 48.9874C113.255 49.0916 113.211 49.1959 113.169 49.3002C112.832 50.2067 112.573 51.1368 112.359 52.0785C112.167 52.8196 112.029 53.5709 111.941 54.3302C111.298 56.4923 110.789 58.7043 110.309 60.8865C110.234 61.2299 110.269 61.5363 110.379 61.7975L110.099 62.0711L109.619 62.5489C108.814 63.3526 107.993 64.1974 107.395 65.1536C106.775 66.1463 106.32 67.2075 105.813 68.2602L105.704 68.4837L105.482 68.9321C105.24 69.4217 105.125 69.6922 104.911 70.284C104.557 71.271 104.366 72.2635 104.277 73.3101C104.146 74.8331 104.164 76.4936 104.831 77.9096C104.834 77.9215 104.84 77.9308 104.846 77.9394C105.149 79.3081 105.9 80.5777 107.04 81.3885C107.285 81.6184 107.547 81.8241 107.827 81.9877C108.498 82.3827 109.115 82.418 109.849 82.2353L109.941 82.2113C110.033 82.1875 110.116 82.1666 110.197 82.1487C110.078 82.2471 110.018 82.3637 110.197 82.4468C110.37 82.5303 110.524 82.578 110.67 82.5959C110.608 82.6764 110.602 82.7628 110.733 82.8344C111.019 82.9864 111.251 83.0344 111.489 82.9924L111.439 83.4068C111.049 86.5429 110.699 87.1632 110.393 90.5318C110.191 93.9806 109.869 97.4208 109.426 100.846L109.273 102.091C108.783 106.036 108.232 110.01 107.389 113.891C106.963 115.588 106.597 117.296 106.287 119.016C105.849 120.324 105.543 121.663 105.373 123.028C105.126 124.418 104.956 125.819 104.858 127.232C104.515 128.135 104.348 129.053 104.357 129.989C104.313 131.247 104.354 132.502 104.488 133.752C104.563 135.051 104.741 136.339 105.024 137.615C105.277 139.365 105.739 141.055 106.4 142.695C106.93 144.525 107.579 146.32 108.318 148.075C109.464 150.794 110.849 153.319 112.424 155.808C113.901 158.142 115.486 160.39 117.296 162.48C119.637 165.181 122.305 167.655 125.229 169.742C126.897 170.976 128.657 172.085 130.497 173.033C132.748 174.196 135.035 175.242 137.474 175.949C138.996 176.39 140.544 176.694 142.111 176.927C145.187 177.382 148.373 177.314 151.467 176.78C153.462 176.512 155.425 176.047 157.28 175.382C158.805 174.834 160.258 174.205 161.711 173.495C162.458 173.134 163.179 172.717 163.87 172.249C165.031 171.495 166.118 170.642 167.131 169.7C167.461 169.417 167.783 169.128 168.098 168.824C168.25 168.69 168.167 168.49 167.991 168.442L167.938 168.436C168.006 168.374 168.078 168.311 168.146 168.245C168.161 168.233 168.173 168.219 168.185 168.204C168.218 168.174 168.253 168.144 168.283 168.115C168.399 168.013 168.283 167.786 168.182 167.733C168.143 167.712 168.092 167.709 168.036 167.715C168.048 167.703 168.057 167.694 168.069 167.685C168.081 167.676 168.084 167.652 168.081 167.628L168.125 167.593C168.277 167.458 168.2 167.262 168.021 167.211C167.934 167.184 167.79 167.198 167.64 167.231L167.583 167.244L167.684 167.148C167.863 166.993 167.807 166.82 167.586 166.767C167.422 166.777 167.259 166.799 167.099 166.839L166.979 166.871C166.919 166.886 166.863 166.904 166.803 166.922C166.904 166.829 167.006 166.74 167.104 166.648C167.202 166.561 167.098 166.314 167.009 166.263C166.886 166.195 166.648 166.29 166.538 166.37C166.267 166.4 165.91 166.519 165.779 166.633C165.418 166.978 165.046 167.309 164.668 167.631C164.439 167.703 164.221 167.798 164.054 167.941C163.626 168.353 163.179 168.741 162.723 169.116L162.377 169.355C162.319 169.394 162.261 169.433 162.202 169.471C161.547 169.855 160.892 170.237 160.24 170.621C157.849 171.432 155.457 172.243 153.069 173.051L152.753 173.146L150.434 173.432C148.909 173.593 147.381 173.585 145.857 173.409C144.713 173.424 143.579 173.31 142.462 173.078C140.565 172.756 138.704 172.282 136.893 171.62C134.809 170.86 132.823 169.858 130.884 168.779C130.187 168.388 129.502 167.974 128.829 167.536C128.612 167.381 128.395 167.223 128.177 167.062C126.745 165.986 125.375 164.838 124.056 163.625C123.436 163.055 122.841 162.462 122.266 161.848C122.183 161.759 122.102 161.672 122.022 161.583C121.471 160.98 120.938 160.358 120.429 159.714L119.943 159.165C117.984 156.724 116.242 154.097 114.676 151.393C113.121 148.713 111.841 145.893 110.822 142.975C110.495 141.934 110.209 140.879 109.971 139.812C109.53 138.53 109.241 137.216 109.107 135.874C109.062 135.611 109.027 135.349 108.991 135.087L108.97 134.673C108.967 134.604 108.965 134.535 108.964 134.467C108.905 134.05 108.854 133.632 108.815 133.215C108.791 132.795 108.776 132.374 108.773 131.954L108.806 129.375C108.815 129.295 108.824 129.211 108.83 129.128L108.896 128.559C109.039 127.384 109.149 126.206 109.292 125.032C109.292 125.026 109.292 125.017 109.295 125.008C109.348 124.57 109.405 124.128 109.47 123.687C109.503 123.425 109.545 123.162 109.583 122.9L109.658 122.441C109.796 121.643 109.964 120.852 110.167 120.067L110.256 119.731L110.775 117.123L111.358 114.556C111.736 112.836 112.052 111.104 112.302 109.357C112.755 106.573 113.142 103.785 113.479 100.986C113.496 100.852 113.514 100.715 113.529 100.581C113.872 97.9845 114.119 95.3788 114.28 92.7644C114.497 90.189 114.622 87.6071 114.655 85.0228C114.658 84.9062 114.58 84.8111 114.488 84.7572L114.496 84.2603C114.507 83.8207 114.515 84.348 114.519 83.8469L114.525 82.4685C114.524 82.3536 114.523 82.2737 114.521 82.268C116.112 82.3781 117.182 82.2879 118.718 82.2068L118.979 82.1934C120.387 82.1282 121.787 81.9731 123.177 81.7403C123.183 81.8122 123.231 81.8625 123.311 81.8774C123.454 81.8834 123.588 81.8834 123.725 81.8867L123.675 82.0802C123.672 82.1788 123.716 82.2411 123.812 82.268L124.209 82.2858C124.739 82.3082 125.271 82.3186 125.798 82.2471C126.271 82.1848 126.733 82.0742 127.192 81.943C127.474 81.8953 127.763 81.83 128.058 81.7463C128.814 81.5287 129.565 81.2365 130.324 81.0043C131.099 80.84 131.885 80.7867 132.707 80.9831C133.576 81.1888 134.312 81.5614 135.223 81.3349C135.404 81.2905 135.58 81.2219 135.756 81.1501L135.918 81.1387C135.946 81.1363 135.974 81.1333 136.003 81.1292C136.953 80.9924 137.799 80.3902 138.704 80.0679C139.02 79.9909 139.334 80.0104 139.64 80.1383L139.716 80.1726L140.017 80.3961C140.138 80.539 140.258 80.6834 140.377 80.8282L140.553 81.0457C140.878 81.4482 141.223 81.8089 141.643 82.0712C142.149 82.5392 142.751 82.8135 143.469 82.8314C143.876 82.8433 144.281 82.7569 144.675 82.632C146.158 83.091 147.745 83.1835 149.225 82.7363C149.811 82.6466 150.386 82.4889 150.937 82.2411C151.196 82.1249 151.455 81.9877 151.705 81.8357C152.751 82.2772 153.739 82.8642 154.749 83.3713L154.976 83.4856C156.008 83.9999 157.149 84.5015 158.316 84.4266C159.787 84.3309 161.231 84.1344 162.673 83.8867C162.685 83.8867 162.7 83.8837 162.711 83.8807L162.91 83.8477L163.631 83.721L164.212 83.6127L164.509 83.7267C166.896 84.6308 169.512 85.336 171.91 84.7035C172.955 84.5756 173.935 84.2236 174.819 83.6244C174.849 83.6035 174.879 83.5826 174.909 83.5588C175.049 83.4872 175.18 83.407 175.296 83.3206L175.321 83.3011L175.344 83.2815L175.355 83.2756C176.663 82.6737 177.413 81.3915 177.282 79.9549C177.363 79.4985 177.36 79.0514 177.27 78.5747C177.696 79.0782 178.131 79.5763 178.572 80.0709C180.184 82.0141 181.762 83.9962 183.224 86.0596L183.559 86.5372C184.363 87.6727 185.111 88.8475 185.802 90.0575C186.502 91.253 187.219 92.4367 187.961 93.6053C188.925 94.6719 189.857 95.7641 190.755 96.883L191.138 97.3642L192.43 99.0664C193.345 100.152 194.104 101.338 194.703 102.626C195.194 103.541 195.647 104.474 196.055 105.431C196.186 105.72 196.311 106.012 196.433 106.304C196.853 107.446 197.207 108.609 197.484 109.81C197.706 110.679 197.866 111.561 197.961 112.454L197.99 112.753C198.026 113.104 198.053 113.456 198.068 113.808C197.981 113.859 197.91 113.909 197.856 113.96L197.639 114.038L197.463 114.09C197.189 114.175 196.716 114.351 196.829 114.568L197.404 115.665C197.344 115.728 197.317 115.793 197.356 115.865C197.74 116.601 198.127 117.337 198.514 118.074C198.526 118.101 198.547 118.121 198.568 118.137C198.237 118.288 197.916 118.455 197.609 118.637C197.01 118.995 196.57 119.409 196.162 119.892C195.733 120.149 195.328 120.429 194.947 120.751C194.476 121.246 194.065 121.788 193.717 122.375C193.395 122.93 193.133 123.508 192.931 124.113C192.841 124.432 192.8 124.763 192.803 125.1C193.163 127.646 196.072 125.902 196.129 125.678C196.528 124.14 196.987 123.169 198.017 122.024L198.044 122.006C198.639 121.743 199.229 121.484 199.845 121.281C199.938 121.299 200.033 121.312 200.128 121.326C200.021 121.478 200.075 121.628 200.292 121.654C201.23 121.839 202.177 121.89 203.13 121.809L204.577 121.604C205.178 121.834 205.751 122.13 206.292 122.482L206.471 122.602L206.504 122.626C207.9 123.75 208.978 125.243 209.717 126.871C209.782 127.016 209.845 127.162 209.906 127.31L209.994 127.533L210 127.545C210.965 131.34 210.104 135.507 208.341 138.95C207.379 140.491 206.376 142.003 205.328 143.485L204.309 144.817C203.708 145.384 203.118 145.965 202.543 146.561C202.454 146.651 202.359 146.74 202.263 146.826C201.96 147.026 201.65 147.202 201.334 147.351C201.212 147.393 201.087 147.431 200.962 147.465C200.355 147.756 199.717 147.912 199.047 147.93C198.162 147.988 197.304 147.884 196.473 147.62L196.308 147.566L196.186 147.521C195.733 147.232 195.313 146.871 194.914 146.448C194.825 146.355 194.658 146.355 194.467 146.406C194.363 146.299 194.259 146.185 194.161 146.063C194.092 145.989 193.985 145.986 193.902 146.042C193.619 146.01 192.853 146.445 193.053 146.674C193.086 146.728 193.127 146.776 193.163 146.826C193.029 146.895 192.895 146.972 192.776 147.053C192.151 147.227 191.227 147.852 191.302 148.039L191.311 148.055C191.456 148.328 191.644 148.558 191.875 148.741L191.954 148.8L192.13 148.922C191.883 149.077 191.674 149.256 191.778 149.381C191.826 149.473 191.877 149.563 191.936 149.644C191.43 150.27 190.927 150.901 190.426 151.533C189.926 152.619 189.307 153.632 188.568 154.571C187.952 155.591 187.21 156.506 186.344 157.323C186.272 157.395 186.198 157.463 186.126 157.532C185.488 158.004 184.82 158.446 184.124 158.871L183.824 159.052C183.667 159.147 183.402 159.266 183.527 159.496C183.542 159.526 183.559 159.55 183.58 159.567C183.143 159.854 182.69 160.125 182.222 160.376L182.178 160.403C182.001 160.516 181.762 160.721 182.014 160.888C182.228 161.031 182.797 160.644 183.065 160.465C183.116 160.465 183.175 160.45 183.235 160.432C183.146 160.48 183.058 160.531 182.968 160.582L182.833 160.656C182.729 160.718 182.216 161.058 182.574 161.201C182.749 161.216 182.91 161.171 183.059 161.07C183.235 160.983 183.408 160.891 183.577 160.796C183.518 160.888 183.518 160.98 183.667 161.04C183.717 161.043 183.768 161.04 183.819 161.034C183.467 161.258 183.107 161.466 182.735 161.663L182.674 161.701C182.517 161.803 182.266 161.997 182.449 162.164C182.654 162.349 183.22 161.955 183.366 161.866L183.801 161.607C183.833 161.621 183.869 161.627 183.908 161.631C183.777 161.711 183.655 161.798 183.521 161.875L183.338 161.974C183.11 162.101 182.787 162.308 182.904 162.516C183.021 162.721 183.369 162.552 183.593 162.419L183.834 162.269C183.845 162.263 183.855 162.256 183.866 162.25L183.875 162.286C183.877 162.292 183.88 162.298 183.884 162.304C183.996 162.499 184.277 162.371 184.47 162.259L184.626 162.164C184.89 162.005 185.151 161.847 185.411 161.688L185.799 161.449H185.805C187.148 160.641 188.39 159.836 189.56 158.799C190.26 158.178 190.912 157.522 191.531 156.822C192.776 155.418 193.702 153.811 194.595 152.172C194.61 152.145 194.589 152.076 194.554 152.001C194.652 151.799 194.747 151.593 194.843 151.381C195.76 151.638 196.784 151.713 197.728 151.65C198.234 151.617 198.735 151.527 199.232 151.393C200.819 151.173 202.35 150.448 203.672 149.581C203.755 149.527 203.83 149.468 203.907 149.414C204.452 149.107 204.97 148.749 205.462 148.341C206.42 147.548 207.335 146.665 208.166 145.744C208.767 145.029 209.336 144.286 209.869 143.517C210.411 142.757 210.959 141.997 211.507 141.237C213.028 138.852 214.002 136.106 214.38 133.301C214.565 132.267 214.66 131.22 214.639 130.177C214.624 129.423 214.541 128.66 214.395 127.9C214.482 127.816 214.568 127.733 214.654 127.646C214.702 127.729 214.75 127.789 214.779 127.759L215.462 127.075C215.946 126.587 216.271 126.227 216.828 125.437C217.716 124.176 218.377 122.79 218.868 121.329C219.222 120.286 219.458 119.099 219.55 117.952C219.58 117.761 219.609 117.567 219.633 117.37C219.824 115.817 219.648 114.33 219.413 112.797C219.398 112.696 219.347 112.634 219.279 112.6C219.262 112.479 219.241 112.355 219.221 112.23C221.193 110.14 222.613 107.621 222.497 104.578C222.461 103.619 222.264 102.674 221.889 101.792L221.843 101.692C223.49 101.439 224.796 100.281 225.777 98.8461C225.864 98.7772 225.948 98.7077 226.029 98.6386C227.784 97.1385 229 95.0145 229.833 92.7709C230.43 91.4682 230.825 90.076 230.993 88.632C231.005 88.5288 231.012 88.4266 231.021 88.324C231.428 86.0408 231.532 83.7347 231.344 81.4628C231.753 80.0566 232.085 78.6257 232.313 77.1614C232.42 76.4641 232.495 75.7662 232.551 75.0686L232.557 75.0302L232.566 74.9047L232.591 74.5918C232.595 74.54 232.599 74.4883 232.602 74.4367C233.105 68.0512 231.679 61.7671 229.32 55.8526C229.115 55.3207 228.903 54.7901 228.684 54.2638L228.452 53.714C226.084 49.8922 222.529 46.8011 219.518 43.5365C218.479 42.4103 220.16 40.7194 221.203 41.8502C223.203 44.0192 225.349 46.0967 227.287 48.3263C227.629 48.3513 227.972 48.3605 228.314 48.3435C228.909 48.3134 229.487 48.2183 230.047 48.066C231.443 47.8603 232.715 47.2969 233.87 46.4681C235.416 45.747 236.735 44.3873 236.866 42.6136C236.881 42.4347 236.878 42.2589 236.866 42.0833C237.009 41.2155 236.881 40.3065 236.518 39.4686C236.455 39.239 236.375 39.0125 236.274 38.7889C235.979 38.1241 235.493 37.4864 234.901 37.0539C234.886 37.0449 234.874 37.0393 234.862 37.03C234.799 36.9647 234.74 36.8989 234.671 36.8395C234.57 36.7468 234.463 36.6607 234.35 36.5802C234.752 35.9181 235.115 35.2387 235.425 34.514C235.761 33.727 235.934 32.9284 236.029 32.0844C236.068 31.7505 236.083 31.4196 236.089 31.089C236.107 30.9367 236.119 30.7817 236.131 30.6267C236.205 29.4462 236.068 28.2212 235.627 27.1179C235.595 27.0348 235.553 26.951 235.514 26.8645C235.431 26.6141 235.338 26.364 235.225 26.1193C234.785 25.1802 234.159 24.3843 233.388 23.7314C232.971 23.3111 232.504 22.9385 231.994 22.6225C231.694 22.4347 231.351 22.2677 230.991 22.1306C230.348 21.7907 229.523 21.4807 228.853 21.4572C228.772 21.4539 228.701 21.4631 228.623 21.4631C228.561 19.7517 228.341 17.8885 227.665 16.3383C227.271 15.2148 226.682 14.2161 225.794 13.4974C225.28 12.9596 224.646 12.5229 223.854 12.2375L223.713 12.1887L223.659 12.1738C222.948 11.828 222.179 11.6908 221.39 11.6941C220.47 11.6461 219.532 11.8193 218.731 12.2423C218.564 12.3318 218.386 12.4421 218.216 12.5613C218.088 12.3049 217.945 12.0456 217.781 11.7865C217.206 10.8651 216.512 10.0632 215.708 9.3328C215.613 9.24634 215.509 9.16884 215.408 9.08566C215.018 8.73092 214.604 8.403 214.175 8.10489C213.249 7.46068 212.233 6.98102 211.167 6.67069C209.936 6.2154 208.638 6.00401 207.339 6.04849L207.07 6.05986C207.01 6.06553 206.951 6.06851 206.894 6.07149C205.605 6.15526 204.333 6.47125 203.118 6.94793C201.858 7.44607 200.792 8.19998 199.801 9.0645C199.568 8.74284 199.303 8.43847 198.979 8.15229C198.886 8.0721 198.788 8.00025 198.696 7.92572C198.624 7.85418 198.55 7.78561 198.473 7.71705C198.118 7.40403 197.743 7.13276 197.332 6.89129C196.87 6.62031 196.373 6.4325 195.858 6.31624C195.334 6.13707 194.783 6.02677 194.223 5.991ZM200.343 128.886C200.29 128.883 197.532 129.919 196.158 130.588L196.091 130.621C194.506 131.408 193.744 131.975 192.321 132.985C192.225 133.054 192.127 133.158 192.127 133.259C192.127 134.731 192.484 136.531 193.72 135.734C193.899 135.618 194.079 135.506 194.26 135.395L194.533 135.23L194.542 135.233C194.539 135.233 194.536 135.23 194.533 135.227C197.225 133.584 200.069 132.297 203.071 131.375C203.276 131.301 201.754 128.999 201.335 129.128C201.576 129.032 200.383 128.888 200.343 128.886ZM172.058 63.8732C173.848 64.0649 175.638 64.2536 177.428 64.4381C178.568 64.5693 179.712 64.6855 180.855 64.7839C182.574 64.9124 184.292 64.933 186.004 64.6975C186.612 64.6143 187.207 64.4948 187.797 64.3487C188.199 64.6438 188.616 64.9211 189.041 65.1867L193.77 68.8084C196.942 71.3038 200.045 73.9478 202.838 76.8662C207.716 81.9651 211.69 87.9302 214.188 94.5378C214.414 94.6717 214.589 94.9051 214.648 95.2631C215.089 97.9714 216.38 100.442 216.846 103.139C217.305 105.796 216.694 108.054 215.027 110.16C214.672 110.61 213.943 110.586 213.495 110.282C213.391 110.487 212.941 110.478 212.783 109.575C212.042 108.771 211.408 107.929 210.978 106.886C210.662 106.118 211.194 105.586 211.839 105.481C211.571 104.515 211.269 103.558 210.929 102.611C209.922 99.7967 208.642 97.1081 207.031 94.5861C205.613 92.3679 203.972 90.4361 202.21 88.4984C202.189 88.4716 202.153 88.463 202.114 88.457L201.748 88.0513C201.697 87.9946 201.593 88.0006 201.477 88.0304C201.367 87.9141 201.26 87.7949 201.146 87.6786C201.036 87.5594 200.914 87.5952 200.846 87.6906C200.658 87.6488 200.316 87.8515 200.211 87.9174C200.033 88.0364 199.976 88.1705 200.128 88.3404C200.155 88.3706 200.182 88.4004 200.208 88.4269C200.003 88.5136 199.8 88.6296 199.643 88.7432C199.092 88.8651 198.318 89.3779 198.452 89.5302C198.734 89.825 199.008 90.1264 199.279 90.4332C199.041 90.6004 198.886 90.7641 198.949 90.8359C200.11 92.0608 201.182 93.3579 202.165 94.7319C202.912 95.7574 203.588 96.8246 204.193 97.9365C205.092 99.5106 205.854 101.129 206.53 102.793C206.626 103.046 206.718 103.3 206.807 103.553C207.796 106.322 208.535 109.196 208.847 112.124L208.86 112.321C208.919 113.376 208.941 116.199 209.05 116.872C208.392 117.197 207.707 117.475 206.995 117.701C206.861 117.74 206.724 117.776 206.587 117.809C206.51 117.776 206.429 117.749 206.349 117.725C205.694 117.46 205.009 117.269 204.309 117.176C203.837 117.114 203.368 117.092 202.899 117.106L202.698 117.114C202.49 117.12 202.284 117.135 202.076 117.156C202.087 117.036 202.093 116.92 202.102 116.801C202.162 116.762 202.207 116.709 202.21 116.637C202.35 115.295 202.353 113.954 202.219 112.612C202.129 111.912 202.025 111.214 201.912 110.517C201.796 109.944 201.662 109.381 201.516 108.817C201.129 107.238 200.613 105.696 199.988 104.188C198.207 99.8862 195.655 96.0078 193.088 92.1503C191.215 89.3334 189.444 86.4534 187.505 83.684C185.855 81.326 184.122 79.0037 182.273 76.7977C180.427 74.595 178.476 72.4751 176.371 70.5139C176.031 70.2006 175.689 69.8965 175.34 69.5957C173.345 67.807 171.177 66.3371 168.92 64.8945C168.834 64.8379 168.679 64.9005 168.551 65.0075L168.187 64.7834C168.126 64.7462 168.064 64.7094 168.003 64.6736C167.946 64.6381 167.884 64.6975 167.851 64.7481C167.696 64.6677 167.541 64.5905 167.386 64.5126C167.274 64.4214 167.157 64.335 167.043 64.2449C168.717 64.1606 170.389 64.0354 172.058 63.8732ZM151.065 43.9998C152.417 43.7288 153.775 43.6898 155.139 43.8925C155.71 43.9762 156.279 44.077 156.843 44.1989C155.562 45.3168 154.532 46.7474 153.863 48.3939C153.141 50.1736 156.023 50.9406 156.735 49.1866C157.422 47.4945 158.722 46.1965 160.293 45.4185C160.633 45.6084 160.962 45.8141 161.276 46.0418C161.687 46.3757 162.074 46.7364 162.437 47.1329C163.229 47.9947 163.956 49.1451 164.432 50.2839C164.617 50.904 164.754 51.5419 164.84 52.1978C164.858 52.3468 164.876 52.4989 164.891 52.6509C165.185 55.736 164.304 58.7377 162.787 61.3938L162.728 61.3947C161.375 60.6602 159.958 60.0413 158.501 59.5372C157.333 58.7505 156.121 58.0228 154.874 57.364C152.221 55.9631 149.419 54.8831 146.533 54.1446L146.199 54.0609C145.519 53.887 144.833 53.7338 144.144 53.5998L143.73 53.5217H143.724L143.769 53.0772C144.001 51.3332 144.683 49.7145 145.565 48.2183C146.226 47.0885 147.223 45.9318 148.331 45.0077L148.337 45.0044C148.84 44.7182 149.369 44.4815 149.913 44.2859L150.118 44.2144L151.065 43.9998ZM187.365 41.3499C190.177 41.0843 192.988 41.1111 195.799 41.3406C197.636 41.5228 199.462 41.7759 201.278 42.0978C202.508 42.3095 203.714 42.6076 204.899 42.9776L204.221 44.3499C203.088 46.6355 201.928 48.9061 200.56 51.0649C199.855 52.1769 199.089 53.2355 198.256 54.2517C197.693 54.9791 197.073 55.6531 196.394 56.2729C196.216 56.4908 196.025 56.6965 195.832 56.8959C195.212 57.4266 194.545 57.8916 193.816 58.2762C193.231 58.7028 192.62 59.0755 191.983 59.4022L191.743 59.5226L189.51 60.3808C189.39 60.4146 189.27 60.4484 189.149 60.4805L188.968 60.5272L188.628 60.5984L188.373 60.46C188.331 60.4371 188.288 60.4146 188.244 60.3927C188.172 60.3543 188.122 60.4288 188.107 60.4822C188.101 60.5033 188.11 60.5329 188.125 60.5627L187.799 60.3865C187.24 60.6139 186.646 60.7958 186.009 60.9156C185.721 60.9696 185.432 61.011 185.143 61.0465L185.104 61.0724C185.098 61.0769 185.091 61.0819 185.084 61.0876H184.768C182.542 61.3026 180.284 61.0185 178.061 60.6187C174.916 60.3021 171.772 59.953 168.629 59.6266C168.569 59.6209 168.545 59.6475 168.545 59.6895L168.352 59.6716C168.072 59.6415 167.744 60.1095 167.956 60.2798C167.786 60.3808 167.622 60.5272 167.5 60.6405L167.429 60.6342C167.86 59.7876 168.194 58.9022 168.432 57.9813L168.736 56.4368C168.819 55.8615 168.867 55.2477 168.876 54.6422C168.897 54.365 168.912 54.1059 168.912 53.8791C168.912 53.6644 168.909 53.4498 168.9 53.2355C169.492 52.9907 170.094 52.7764 170.707 52.5942C172.449 52.3799 174.188 52.165 175.93 51.9533C176.976 51.9921 178.021 52.0666 179.063 52.1828C180.245 52.2872 181.425 52.4213 182.601 52.5823C182.711 52.5942 182.908 52.4452 183.027 52.2723L183.53 52.3411C183.792 52.3739 184.066 51.849 183.721 51.7416C183.596 51.692 183.47 51.6449 183.345 51.5997L183.158 51.533L183.265 51.5449C183.301 51.5482 183.345 51.5389 183.396 51.5213C183.673 51.5568 183.95 51.5926 184.224 51.6254C184.571 51.6688 184.492 51.2102 184.249 51.1023L184.132 51.059C184.337 50.9305 184.518 50.5789 184.264 50.4639L184.23 50.4508C184.111 50.4034 183.995 50.3644 183.875 50.3197C183.884 50.2812 183.884 50.2451 183.872 50.2126L184.364 50.2749C184.409 50.2808 184.195 49.9669 184.093 49.9049L184.075 49.8964L183.84 49.8248C183.804 49.7234 183.613 49.4999 183.548 49.4793C182.684 49.2077 181.88 48.9636 181.04 48.7755C180.999 48.7248 180.951 48.686 180.898 48.6741C180.373 48.5489 179.843 48.4505 179.313 48.3674C179.278 48.3134 179.242 48.2749 179.2 48.2717C177.887 48.1047 176.571 48.066 175.249 48.1557C174.995 48.1792 174.742 48.2064 174.489 48.2389C174.004 48.2928 173.518 48.3614 173.036 48.4538C171.828 48.6614 170.648 48.977 169.498 49.4027L169.233 49.5028C168.944 49.6105 168.659 49.7234 168.376 49.846C168.233 49.3362 168.054 48.8351 167.843 48.3435C167.81 48.2478 167.774 48.1557 167.735 48.0633L168.024 47.8901C168.087 48.0093 168.215 48.1017 168.298 48.0514C170.368 46.6532 172.557 45.4873 174.864 44.5572C176.157 43.9849 177.479 43.4992 178.834 43.0935C179.51 42.8762 180.192 42.6794 180.877 42.4916C181.219 42.4198 181.562 42.3482 181.91 42.2886C183.7 41.8057 185.519 41.493 187.365 41.3499ZM119.168 46.0818C119.42 46.5164 119.681 46.9469 119.958 47.3714C121.305 49.434 122.919 51.3696 124.749 53.0572C124.272 53.056 123.795 53.0742 123.325 53.1184C122.514 53.195 121.72 53.3297 120.946 53.5184C120.883 53.468 120.813 53.4427 120.756 53.4826L120.555 53.6225C118.894 54.0711 117.335 54.7764 115.922 55.7214L115.948 55.5348C115.952 55.5037 115.957 55.4726 115.962 55.4415C115.938 55.0748 115.932 54.7079 115.944 54.3442C116.236 52.1948 116.966 50.2154 117.799 48.2124C117.815 48.1736 117.804 48.1232 117.78 48.072C118.201 47.3839 118.661 46.7186 119.168 46.0818ZM118.785 29.1838C119.408 29.2971 120.024 29.4432 120.638 29.625C121.79 29.7982 122.907 30.1023 123.985 30.5342C125.471 31.0619 126.912 31.676 128.347 32.3262C131.134 33.5898 133.749 35.188 136.128 37.1138C136.28 37.2297 136.426 37.3493 136.572 37.4685C137.105 37.9303 137.623 38.4132 138.115 38.923C138.63 39.4834 139.148 40.0442 139.663 40.6073C140.294 41.2694 141.021 41.8683 141.593 42.5838C141.709 42.7298 141.81 42.8908 141.902 43.0521L141.566 43.1681C141.283 43.2635 141.331 43.7941 141.611 43.7166C141.706 43.6897 141.795 43.657 141.885 43.6215C141.846 43.6722 141.819 43.7228 141.813 43.7673C141.795 43.9103 141.905 44.1074 142.081 44.0567C142.161 44.0355 142.242 44.0057 142.322 43.9729C142.346 44.0654 142.364 44.1578 142.364 44.2472C142.349 44.2532 142.334 44.2591 142.316 44.2624C142.12 44.331 141.751 44.6377 141.697 44.8467C141.655 45.0077 141.792 45.1803 141.968 45.1326C142.099 45.0968 142.227 45.0432 142.352 44.9835C142.269 45.0643 142.203 45.1508 142.197 45.2253C142.185 45.3624 142.304 45.5559 142.468 45.5115C142.772 45.4277 143.016 45.2998 143.219 45.1388C143.272 45.2101 143.35 45.2667 143.412 45.2491L143.528 45.2134C143.497 45.243 143.467 45.2742 143.439 45.3049L143.397 45.3502C142.575 46.2386 141.858 47.2223 141.283 48.2809C141.256 48.2508 141.223 48.224 141.182 48.1912C140.914 47.9646 140.637 47.744 140.36 47.5297L140.276 47.4564L140.19 47.3833L140.813 47.589L140.799 47.5729C140.755 47.5165 140.618 47.3285 140.554 47.2659L140.539 47.2521C139.684 46.4863 138.752 45.8361 137.745 45.3058C137.093 44.8822 136.408 44.5244 135.691 44.2293C133.978 43.4334 132.233 42.8285 130.441 42.2681C130.173 42.1816 129.905 42.0892 129.637 42.0054C129.559 41.9786 129.544 42.0114 129.556 42.0651L129.416 42.0233C129.166 41.9428 128.74 42.384 128.91 42.5897C128.808 42.6732 128.707 42.7662 128.619 42.8535L128.556 42.9176L128.484 42.8968C128.271 42.8311 127.913 43.1631 127.685 43.3983L127.516 43.5765C127.388 43.7136 127.138 43.9968 127.445 44.1074L127.829 44.2383C127.817 44.3158 127.85 44.3814 127.969 44.4261C128.103 44.4708 128.234 44.5185 128.365 44.5665C128.286 44.6358 128.208 44.708 128.131 44.7811L128.017 44.8911C127.882 45.0289 127.562 45.3326 127.844 45.4667L127.88 45.4814L128.246 45.6125C128.198 45.7199 128.21 45.8215 128.371 45.8808C130.509 46.6082 132.597 47.4611 134.636 48.43C136.164 49.2763 137.778 49.9086 139.478 50.3227C139.618 50.3677 139.922 50.156 140.047 49.9444L140.301 50.0191C140.343 50.0315 140.386 50.0434 140.428 50.0544L140.47 50.0636C140.151 50.9132 139.916 51.8341 139.785 52.7254C139.77 52.8059 139.758 52.8897 139.749 52.9701C139.416 52.943 139.085 52.9192 138.752 52.9016C136.444 52.7791 134.109 52.8536 131.796 53.1278C130.861 52.5704 129.961 51.9593 129.101 51.2978C128.839 51.0948 128.579 50.8861 128.323 50.6744C126.787 49.3389 125.396 47.8397 124.163 46.2207C123.023 44.7212 122.031 43.1114 121.197 41.4244C120.459 39.8412 119.848 38.1956 119.387 36.4964C118.964 34.9433 118.818 33.4318 118.711 31.825C118.675 31.5627 118.651 31.3007 118.63 31.038L118.633 30.9256L118.636 30.8711C118.666 30.308 118.723 29.7442 118.785 29.1838ZM140.604 49.1481C140.672 49.172 140.744 49.1958 140.815 49.2167C140.774 49.3091 140.735 49.3989 140.696 49.491L140.692 49.4891L140.41 49.2674C140.47 49.2406 140.538 49.1991 140.604 49.1481ZM119.202 24.9567C118.666 24.757 118.261 24.7182 117.987 24.8434C118.392 24.8732 118.797 24.912 119.202 24.9567Z" fill="black"/>
<path fill-rule="evenodd" clip-rule="evenodd" d="M123.669 146.639C124.654 147.925 126.437 148.91 128.434 149.381C130.337 149.83 132.44 149.812 134.255 149.121L134.411 149.059C135.768 148.496 137.07 147.359 137.565 146.173C137.761 145.701 137.828 145.222 137.693 144.774C137.572 144.372 137.288 144.002 136.816 143.683C136.667 143.583 136.468 143.576 136.278 143.61C136.043 143.651 135.811 143.761 135.671 143.91C134.895 144.734 133.768 145.539 132.435 145.525C131.406 145.514 130.566 145.109 129.751 144.65L129.179 144.322C128.626 144.008 128.066 143.712 127.432 143.577C126.298 143.335 124.922 143.777 124.083 144.506C123.718 144.824 123.452 145.198 123.38 145.601C123.319 145.939 123.404 146.292 123.669 146.639ZM129.568 124.145C127.314 125.513 123.881 128.704 126.305 132.096C129.158 135.087 133.267 131.658 135.291 130.107C137.169 128.905 139.278 131.996 137.536 133.4C122.907 144.22 116.97 124.503 128.428 122.536C129.689 122.319 130.158 123.721 129.568 124.145ZM154.99 103.114L154.343 102.937L153.683 102.759L153.236 102.641C150.17 101.839 146.788 101.134 143.748 101.478C142.639 101.604 141.739 102.227 141.582 103.388C141.45 104.367 142.083 105.631 143.161 105.805C146.732 106.382 150.388 106.195 153.976 106.79C155.763 107.086 157.535 107.453 159.315 107.785C160.669 108.037 162.067 108.125 163.432 108.329L163.118 108.373C163.008 108.388 163.036 108.572 163.144 108.565C163.594 108.52 164.045 108.513 164.496 108.544L164.689 108.56C164.984 108.602 165.158 108.25 164.895 108.072C163.232 106.945 161.821 105.723 159.959 104.893C158.348 104.174 156.69 103.582 154.99 103.114ZM127.077 101.386C124.719 99.005 119.706 99.9199 116.902 101.009C115.301 101.631 113.779 102.417 112.511 103.593L112.388 103.709L112.197 103.892C111.342 104.728 110.387 105.88 110.523 107.086C110.544 107.27 110.644 107.481 110.852 107.518C111.975 107.716 113.079 107.124 114.116 106.768L114.803 106.533C115.834 106.182 116.873 105.846 117.936 105.604C119.259 105.303 120.608 105.13 121.966 105.147C123.338 105.165 124.812 105.552 126.12 105.007C127.578 104.401 128.334 102.655 127.077 101.386ZM150.367 120.586C150.968 121.2 151.763 121.546 152.779 121.34C153.574 121.179 155.087 120.381 156.295 119.152C157.122 118.311 157.813 117.261 158.001 116.044C158.044 115.761 158.195 115.58 158.392 115.466C158.547 115.376 158.753 115.331 158.976 115.353C159.166 115.372 159.368 115.441 159.523 115.532C159.82 115.705 159.941 115.951 159.966 116.135C160.203 117.907 159.518 119.665 158.45 121.147C157.009 123.148 154.892 124.614 153.648 124.957C151.52 125.544 149.276 125.076 147.623 123.596C146.3 122.413 145.622 120.871 144.993 119.286L144.872 118.978C144.731 118.618 144.59 118.261 144.441 117.908C144.143 117.2 144.239 116.588 144.528 116.111C144.848 115.583 145.439 115.211 146.097 115.096C146.705 114.991 147.356 115.106 147.87 115.477C148.304 115.791 148.654 116.288 148.778 117.022C148.981 118.216 149.45 119.587 150.277 120.491L150.367 120.586ZM113.863 113.673C114.359 113.415 114.747 113.337 115.298 113.502C115.602 113.593 115.903 113.768 116.138 114.003C116.372 114.236 116.54 114.526 116.605 114.848C116.766 115.642 117.201 116.384 117.82 116.869C118.35 117.283 119.018 117.502 119.759 117.378C120.559 117.245 121.321 116.732 121.846 116.128C121.992 115.96 122.112 115.772 122.228 115.582L122.297 115.468C122.556 115.042 122.807 114.646 123.164 114.332C123.299 114.213 123.503 114.131 123.7 114.131C123.781 114.131 123.862 114.144 123.939 114.168C124.736 114.966 124.889 115.572 124.863 116.172C124.836 116.802 124.588 117.44 124.186 118.035C123.244 119.43 121.454 120.575 120.247 120.834C118.594 121.189 116.952 120.763 115.635 119.84C114.281 118.891 113.277 117.418 112.964 115.757C112.889 115.357 112.921 114.925 113.073 114.551C113.222 114.185 113.482 113.872 113.863 113.673Z" fill="black"/>
</svg>
