<svg width="362" height="359" viewBox="0 0 362 359" fill="none" xmlns="http://www.w3.org/2000/svg">
<path fill-rule="evenodd" clip-rule="evenodd" d="M354.194 209.792C349.77 210.225 345.345 210.657 340.92 211.089C319.73 212.701 298.547 216.068 277.519 218.089C276.995 217.24 275.971 217.38 275.348 217.97C273.25 217.787 270.898 216.19 268.998 217.851C268.936 217.842 268.874 217.832 268.812 217.826C265.428 211.358 263.088 204.46 260.818 197.552C259.369 193.304 257.419 189.193 253.816 186.341C247.667 182.091 233.579 173.473 226.358 173.835C226.239 172.548 225.636 171.221 224.646 170.364C226.827 166.662 218.107 164.246 217.492 164.675C217.887 152.306 212.044 141.564 199.16 139.101C187.617 136.706 171.2 136.304 164.992 148.315C164.31 148.239 157.335 148.203 156.66 148.278C155.61 146.955 144.087 159.495 148.81 163.86C106.585 182.46 82.5752 180.241 70.888 232.529C69.3079 237.442 69.1929 242.817 67.5244 247.619C61.5887 261.421 56.7742 276.117 55.576 291.135C52.6821 291.873 52.3493 296.954 55.7013 297.689C56.9817 297.97 58.0524 298.354 58.986 299.081C58.2562 311.388 61.2453 339.501 63.1287 339.414C66.9689 351.584 84.0984 355.019 96.2255 350.742C94.135 354.658 96.2255 357.121 96.2255 359.213C139.862 360.857 187.574 359.911 231.199 362.165C236.779 362.086 242.648 363.53 248.152 362.699C251.509 361.898 251.515 356.642 248.11 355.992L262.987 352.775C262.654 352.65 269.119 348.368 274.006 340.366C278.554 331.415 275.458 320.611 277.519 310.874C293.615 309.564 309.976 309.003 325.895 306.289C328.066 312.756 337.462 305.022 340.449 301.911C340.445 301.906 340.441 301.901 340.437 301.896C341.883 301.503 343.042 300.154 343.081 298.557C344.094 297.114 344.307 295.082 343.335 293.688C347.79 268.089 354.583 241.951 357.038 216.111C357.905 215.92 358.723 215.541 359.416 214.957L359.36 214.901C360.534 213.598 360.762 211.348 358.805 210.241C357.226 209.347 355.908 209.624 354.194 209.792Z" fill="#D08B5B"/>
<path fill-rule="evenodd" clip-rule="evenodd" d="M185.916 305.604L189.324 307.764L217.211 316.712L234.254 318.871L248.197 316.712V340.47L250.986 362.685C249.747 364.948 237.972 364.948 215.662 362.685C201.44 361.243 149.462 360.543 137.628 360.235L136.958 360.217C123.051 359.817 109.314 359.817 95.7465 360.217V351.886L134.479 332.756L169.183 313.318L185.916 305.604ZM166.155 146.374L168.717 148.278L163.125 157.426L190.365 179.367V196.892L198.989 205.015L203.919 196.892L210.865 187.694L215.801 172.784L214.121 162.961L217.501 162.644C217.517 163.315 217.514 163.993 217.493 164.675C218.108 164.246 226.827 166.661 224.647 170.364C225.636 171.221 226.239 172.548 226.358 173.835C233.579 173.473 247.667 182.091 253.816 186.341C257.419 189.193 259.369 193.304 260.818 197.551L261.159 198.588L261.511 199.651L261.866 200.714C263.827 206.556 265.945 212.346 268.812 217.826C268.874 217.832 268.936 217.842 268.998 217.851C270.899 216.19 273.25 217.787 275.349 217.97C275.956 217.394 276.948 217.247 277.482 218.031L277.519 218.089L251.376 223.217L234.129 283.459L219.109 271.319L211.047 272.513L189.757 280.159L164.996 286.563L108.468 302.082H101.269L59.3811 292.009L55.6061 290.768C56.8527 275.878 61.6371 261.309 67.5246 247.619C69.193 242.817 69.3081 237.441 70.8881 232.529C82.5754 180.241 106.585 182.46 148.81 163.86C144.087 159.495 155.611 146.955 156.66 148.278L156.726 148.272L156.869 148.265L157.053 148.258C158.701 148.211 164.38 148.247 164.992 148.315C165.348 147.628 165.736 146.982 166.155 146.374Z" fill="#FFCF77"/>
<path fill-rule="evenodd" clip-rule="evenodd" d="M358.373 211.621L357.594 215.942C357.409 216.003 357.221 216.054 357.03 216.096C356.785 218.672 356.497 221.251 356.173 223.832L351.345 250.626C350.512 255.366 349.722 260.116 348.937 264.868L347.897 269.973L347.253 273.145C345.863 280.015 344.512 286.863 343.327 293.673C343.506 293.929 343.645 294.207 343.746 294.5L343.655 294.883L343.591 295.139L343.526 295.392C342.591 298.971 340.964 302.442 337.13 303.496C334.238 304.29 331.064 304.362 328.077 304.675L327.746 304.711L275.486 310.563C269.171 311.27 262.86 311.998 256.548 312.734L251.077 313.373C243.452 314.253 235.782 314.945 228.269 316.536C227.993 316.595 227.764 316.705 227.577 316.849C229.09 311.146 230.539 305.451 231.851 299.69C233.329 293.207 234.731 286.711 236.311 280.251C239.495 267.236 243.063 254.307 246.97 241.489C247.79 238.799 248.628 236.114 249.486 233.436L250.087 231.563L250.55 230.071C251.266 227.796 252.153 225.458 254.253 224.203C256.712 222.734 260.064 222.491 262.852 221.983L264.74 221.63C267.565 221.105 270.393 220.6 273.225 220.115C286.783 217.793 300.418 215.93 314.104 214.531C328.344 213.075 342.634 212.128 356.942 211.666L358.373 211.621ZM228.66 300.959L228.794 300.97L226.842 316.508C226.53 316.291 226.133 316.157 225.65 316.159C219.246 316.177 213.108 314.14 207.172 311.899L206.267 311.556L203.747 310.592C201.185 309.614 198.609 308.658 195.985 307.865L194.924 307.547L194.385 307.388C192.398 306.811 190.309 306.286 188.242 306.155L187.96 306.14L188.562 305.825C188.65 305.779 188.727 305.728 188.796 305.672C189.933 305.756 191.073 305.733 192.273 305.518C194.529 305.113 196.723 304.332 198.738 303.244L199.638 302.758L200.006 302.563L200.249 302.438L200.491 302.316C202.222 301.457 203.876 300.919 206.061 301.377C208.541 301.896 210.715 303.227 212.951 304.352L213.347 304.549L213.614 304.677L213.886 304.805L214.161 304.93C217.185 306.284 221.996 307.746 223.156 303.653C223.621 302.009 223.257 300.469 222.448 299.119C223.954 298.989 226.645 300.757 228.66 300.959Z" fill="white"/>
<path fill-rule="evenodd" clip-rule="evenodd" d="M165.797 145.526C167.112 142.236 171.556 143.515 171.06 146.971C170.764 149.041 169.625 151.228 168.602 153.043C167.769 154.52 166.819 155.961 165.531 157.068C167.824 159.198 170.204 161.251 172.645 163.2C175.308 165.326 178.108 167.286 181.002 169.087C183.54 170.667 186.193 172.066 188.585 173.869C190.81 175.544 192.836 177.56 193.868 180.191C194.966 182.993 194.489 185.886 193.68 188.686L193.587 189.002C192.761 191.776 191.33 195.12 193.314 197.733C194.323 199.064 195.792 200.006 197.059 201.069C198.186 202.015 199.243 203.043 200.213 204.147C202.328 206.554 204.048 209.263 205.134 212.281L205.231 212.556C206.161 215.227 206.841 218.5 205.584 221.124C205.223 221.876 204.06 221.631 203.858 220.899C203.401 219.24 203.425 217.503 203.042 215.821C202.643 214.072 201.98 212.411 201.114 210.84C199.439 207.8 197.169 205.204 194.488 203.009L193.686 202.359C191.594 200.65 189.672 198.837 189.248 196.008C188.793 192.982 190.011 190.099 190.794 187.234C191.34 185.238 191.518 183.324 190.928 181.52C190.208 182.691 189.225 183.802 188.448 184.794C186.899 186.769 185.336 188.732 183.777 190.698C182.179 192.715 180.62 194.763 179.136 196.865C178.472 197.805 177.815 198.751 177.16 199.697C176.668 200.409 175.981 201.12 175.444 201.845C175.575 202.234 175.565 202.681 175.328 202.999C172.482 206.828 168.433 198.838 167.377 196.82C165.227 192.709 163.627 188.342 161.469 184.232C159.233 179.972 156.688 175.825 153.85 171.935C152.134 169.583 150.21 167.373 148.64 164.946C144.942 168.285 140.074 170.524 135.604 172.554C130.692 174.785 125.588 176.607 120.552 178.541L119.065 179.117C110.387 182.489 101.498 186.194 94.2848 192.184C85.8093 199.223 80.7951 209.033 77.0622 219.192C72.7651 230.888 69.2101 242.899 65.8962 254.902C64.2003 261.044 62.5912 267.213 61.0785 273.402C59.7455 278.855 58.6405 284.362 57.0974 289.758C60.227 289.648 63.7962 290.854 66.4682 291.203C78.6453 292.79 90.6585 295.32 102.155 299.7C103.575 300.241 103.986 301.654 103.677 302.798C104.496 302.568 105.314 302.335 106.133 302.106C105.236 300.737 105.664 298.29 105.735 296.772L105.739 296.668C105.812 294.646 106.032 292.622 106.175 290.604C106.447 286.757 106.801 282.937 107.272 279.112L107.392 278.156C107.925 273.994 108.32 269.808 108.902 265.654L108.971 265.178C108.692 264.115 108.367 263.065 108.026 262.02C107.116 259.235 105.833 256.614 104.709 253.917C104.576 253.6 105.03 253.417 105.243 253.608C107.147 255.314 108.66 257.478 109.875 259.741C109.896 259.634 109.915 259.527 109.937 259.421L110.075 258.741C110.417 257.083 110.833 255.34 111.854 253.995C111.963 253.852 112.178 253.822 112.281 253.995C113.258 255.642 113.368 257.727 113.518 259.601C113.688 261.721 113.71 263.867 113.68 265.993C113.621 270.147 113.327 274.313 113.093 278.46C112.863 282.535 112.412 286.559 111.83 290.594L111.719 291.351C111.435 293.271 111.202 295.216 110.827 297.124L110.721 297.643C110.521 298.589 110.398 299.923 109.998 301.031C120.267 298.179 130.55 295.392 140.854 292.654C148.301 290.675 155.755 288.726 163.207 286.764C163.6 286.059 164.09 285.4 164.701 284.811C166.714 282.869 169.382 282.003 171.829 283.497C172.028 283.619 172.044 283.93 171.829 284.047C171.36 284.302 170.89 284.564 170.429 284.837L174.903 283.63C178.247 282.728 181.632 281.6 185.055 280.971C191.359 277.873 198.14 275.63 204.782 273.414L205.564 273.15C208.965 271.996 212.483 270.703 215.996 270.063C218.568 269.595 221.587 270.16 222.622 272.784C223.931 273.643 225.163 274.653 226.352 275.646C227.212 276.364 228.036 277.127 228.873 277.87L229.028 278.005C229.713 278.597 230.255 278.993 230.424 279.935C230.51 280.422 230.2 281.08 229.597 281.015C227.753 280.819 226.254 278.69 225.003 277.419C224.037 276.437 223.063 275.421 222.181 274.342C221.667 274.62 220.963 274.57 220.635 273.953C218.939 270.754 214.29 272.971 211.719 273.729L208.034 274.815C206.192 275.359 204.351 275.905 202.513 276.461C197.461 277.989 192.434 279.699 187.336 281.101C187.792 281.601 187.729 282.489 186.863 282.827C182.873 284.386 178.495 285.192 174.349 286.262C171.732 286.938 169.116 287.618 166.501 288.302C166.053 289.025 165.73 289.843 165.595 290.796C165.096 294.298 166.058 298.339 166.995 301.726L167.137 302.231C167.907 304.954 169.041 308.293 171.401 310.012C171.977 310.432 172.71 310.724 173.449 310.79C178.069 308.422 182.687 306.055 187.309 303.692C188.165 303.254 188.956 303.847 189.148 304.552C190.778 304.286 192.404 303.866 193.884 303.366C196.373 302.524 198.315 300.919 200.648 299.81C205.161 297.663 209.771 300.3 213.812 302.305L214.743 302.76C216.555 303.636 220.325 305.318 221.195 302.923C222.036 300.607 219.377 298.131 217.66 297.088C215.613 295.845 213.229 295.18 210.916 294.626C209.595 294.309 208.258 294.051 206.913 293.863C205.387 293.649 203.811 293.681 202.342 293.188C201.612 292.944 201.5 291.789 202.342 291.599C204.603 291.086 207.302 291.645 209.662 292.216L210.896 292.519C213.273 293.1 215.674 293.829 217.839 294.988C219.414 295.831 221.076 297.111 222.162 298.679C223.105 297.807 224.278 297.836 225.501 298.16L226.164 298.343C227.26 298.645 228.148 298.854 229.214 298.644C229.356 297.872 229.501 297.099 229.655 296.327C231.175 288.732 232.841 281.167 234.679 273.641C237.85 260.662 241.52 247.824 245.656 235.119L246.071 233.848C247.026 230.942 247.793 227.776 249.332 225.106C250.786 222.582 253.117 221.127 255.886 220.357C259.029 219.483 262.331 219.026 265.537 218.436C266.252 218.304 266.969 218.18 267.685 218.05C267.08 216.963 266.628 215.728 266.222 214.781L266.15 214.617C265.277 212.633 264.492 210.614 263.734 208.584L263.167 207.058C261.799 203.383 260.386 199.768 258.462 196.331C256.437 192.713 253.75 189.756 250.401 187.308C243.572 182.317 235.341 179.772 228.718 174.438C228.446 174.219 228.794 173.846 229.07 173.984C233.542 176.221 238.37 177.743 243.022 179.564L243.939 179.925C247.616 181.376 251.35 182.956 254.532 185.306C258.08 187.926 260.874 191.18 262.974 195.049C265.044 198.864 266.368 203.133 267.829 207.207L268.219 208.293C268.808 209.92 269.417 211.543 270.114 213.127C270.667 214.385 271.7 215.821 272.169 217.257C273.454 217.035 274.738 216.813 276.023 216.599C303.869 211.97 332.027 209.25 360.247 208.454C361.351 208.423 361.922 209.472 361.759 210.431C359.051 226.377 356.644 242.377 354.003 258.335C352.851 265.3 351.675 272.26 350.472 279.216C349.862 282.74 349.158 286.25 348.581 289.78C348.115 292.63 347.776 295.503 346.976 298.287C346.259 300.784 345.157 303.191 343.349 305.096C341.399 307.149 338.678 308.142 335.939 308.612C328.985 309.804 321.853 310.29 314.843 311.084L277.521 315.312C278.067 320.248 278.107 325.108 277.857 330.102L277.715 332.828C277.598 335.02 277.459 337.216 277.142 339.387C276.746 342.109 275.495 344.414 273.653 346.447C271.961 348.315 269.906 349.908 267.908 351.435C265.833 353.02 263.689 354.55 261.249 355.53L260.933 355.655C258.793 356.488 254.778 357.776 251.853 357.305C252.235 359.213 252.975 361.264 252.319 363.152C252.015 364.028 250.863 364.465 250.158 363.72C248.761 362.241 248.652 360.289 248.321 358.361C247.977 356.354 247.68 354.34 247.416 352.321C246.906 348.418 246.509 344.479 246.388 340.542C246.264 336.5 246.312 332.451 246.53 328.413C246.643 326.339 246.782 324.267 247.047 322.206C247.159 321.328 247.275 320.448 247.406 319.572C247.454 319.252 247.508 318.934 247.565 318.617L244.215 318.993C239.079 319.564 233.94 320.08 228.767 320.16C228.154 320.169 227.683 319.891 227.375 319.487C227.047 320.019 226.476 320.4 225.657 320.397C218.434 320.37 211.707 318.018 205.136 315.246C201.825 313.848 198.564 312.335 195.247 310.949C192.152 309.656 188.842 308.733 185.821 307.276L177.882 311.422C177.824 311.626 177.749 311.819 177.67 311.98C177.153 313.031 176.134 313.601 175.093 314.03C174.094 314.443 173.06 314.571 172.052 314.467C166.031 317.609 160.009 320.747 153.983 323.879L147.956 327.007C135.947 333.233 123.985 339.562 111.901 345.641L111.011 346.087C106.837 348.172 102.355 350.284 97.7227 351.86C97.6403 353.028 97.6923 354.163 97.7906 355.399L97.8142 355.668C97.9523 357.129 98.2485 358.958 97.072 359.998C96.46 360.539 95.3669 360.541 94.9507 359.726C94.1956 358.247 94.8736 355.917 95.1128 354.311C95.1977 353.74 95.3012 353.153 95.4542 352.583C90.1439 354.157 84.6727 354.921 79.2687 354.037C74.0073 353.177 69.9324 349.876 66.6473 345.839C63.1802 341.579 60.7166 336.614 59.3947 331.292C57.8903 325.236 57.7921 318.982 57.8274 312.779C57.8649 306.173 58.1103 299.535 58.9172 292.973C58.0332 292.766 57.0528 292.587 56.1595 292.649C55.717 293.354 54.8587 293.651 54.0831 293.559C52.3965 295.412 56.6744 297.304 58.0415 297.778C58.5162 297.943 58.4654 298.711 57.9179 298.688L57.573 298.671C55.4606 298.559 53.2782 298.2 52.0362 296.246C51.0409 294.679 51.3399 292.822 52.5264 291.545C53.31 284.167 55.1834 276.982 56.927 269.785C58.638 262.721 60.5409 255.702 62.5577 248.719L63.4619 245.593C66.6374 234.644 69.9567 223.605 74.337 213.091C76.5243 207.84 79.0441 202.687 82.4597 198.109C85.6435 193.841 89.4024 190.19 93.7231 187.071C101.778 181.256 111.229 177.743 120.516 174.396L120.931 174.246C125.744 172.512 130.545 170.758 135.302 168.88C139.51 167.219 143.541 165.113 147.728 163.428C147.592 163.182 147.461 162.933 147.335 162.681L147.257 162.746C147.244 162.757 147.23 162.767 147.216 162.777C146.795 163.067 146.175 162.924 145.828 162.598C144.848 161.677 145.18 160.655 145.834 159.701L145.919 159.579C146.719 158.463 147.433 157.283 148.171 156.127L148.634 155.404C149.873 153.472 151.175 151.527 152.828 149.93C153.593 149.19 154.431 148.637 155.319 148.224C155.243 148.064 155.909 147.737 156.097 147.902C158.91 146.877 162.146 147.092 165.212 147.374M275.715 315.516L271.805 315.959C267.503 316.447 263.199 316.918 258.895 317.385L249.545 318.396C249.522 318.927 249.457 319.446 249.445 319.847C249.384 321.913 249.339 323.98 249.295 326.047C249.209 330.19 249.304 334.338 249.578 338.473C249.843 342.48 250.193 346.487 250.736 350.467L250.848 351.262L250.912 351.681C251.355 351.723 251.791 351.933 252.153 352.364C252.944 353.304 255.807 352.39 256.926 351.994C258.765 351.342 260.497 350.242 262.094 349.138C263.655 348.06 265.06 346.803 266.41 345.479L267.515 344.391C268.614 343.303 269.715 342.145 270.388 340.777C271.301 338.922 271.419 336.645 271.687 334.624C272.016 332.139 272.409 329.655 272.824 327.182M162.197 289.431L161.791 289.538C147.057 293.436 132.345 297.45 117.566 301.176C110.252 303.02 102.903 304.731 95.5805 306.54L94.3949 306.835C88.6179 308.289 82.7716 310.039 78.3477 314.211C78.1844 314.365 77.9473 314.129 78.101 313.965C82.8688 308.911 89.6498 306.772 96.1605 304.917C97.364 304.574 98.5691 304.24 99.7729 303.899C90.9183 300.756 81.9241 298.021 72.7222 296.071C70.3527 295.568 67.9556 295.2 65.588 294.695C63.9368 294.344 62.3242 293.835 60.6904 293.413L59.4054 293.091L59.3883 297.136C59.3669 302.864 59.3771 308.587 59.6706 314.315L59.7261 315.376C60.0686 321.749 60.603 328.255 62.8745 334.265C64.7204 339.149 67.6625 343.75 71.51 347.307C73.4568 349.106 75.5499 350.508 78.1373 351.199C80.5396 351.841 83.0566 351.917 85.5262 351.745C97.3718 350.923 107.916 344.515 118.206 339.21C135.037 330.533 151.869 321.86 168.717 313.216C168.261 312.906 167.832 312.549 167.442 312.147C165.183 309.824 163.991 306.643 163.209 303.563C162.376 300.284 161.877 296.77 161.819 293.386M183.634 316.565C183.783 316.486 183.955 316.585 183.962 316.753C184.014 318.034 183.303 319.298 182.771 320.452L182.715 320.575C182.07 322.005 181.363 323.416 180.632 324.804C179.171 327.578 177.653 330.323 176.068 333.028C172.881 338.471 169.34 343.685 165.155 348.425C164.209 349.495 162.655 348.122 163.261 346.97C166.186 341.413 169.596 336.166 173.106 330.965C174.864 328.361 176.62 325.754 178.394 323.162C179.134 322.08 179.884 321.002 180.654 319.941L181.119 319.306M358.381 211.637C343.595 212.081 328.827 213.041 314.112 214.546C300.426 215.945 286.791 217.808 273.233 220.13C270.401 220.615 267.573 221.12 264.748 221.645L263.054 221.962C260.228 222.495 256.777 222.715 254.262 224.218C251.609 225.803 250.893 229.114 250.01 231.844C248.973 235.056 247.962 238.276 246.978 241.505C243.071 254.323 239.503 267.252 236.319 280.266C234.739 286.726 233.337 293.222 231.859 299.706C230.547 305.466 229.098 311.162 227.585 316.864C227.772 316.72 228.001 316.61 228.277 316.552C235.79 314.96 243.46 314.268 251.085 313.389L251.823 313.303C259.712 312.379 267.601 311.462 275.494 310.578L327.755 304.726C330.837 304.381 334.139 304.334 337.138 303.511C342.238 302.11 343.433 296.433 344.289 291.912L344.314 291.775C346.894 278.115 348.947 264.336 351.353 250.641M228.801 300.985C226.772 300.851 223.996 299.001 222.456 299.134C223.264 300.484 223.629 302.024 223.163 303.668C221.867 308.245 216.005 305.877 213.182 304.479C210.867 303.332 208.632 301.929 206.069 301.392C203.166 300.784 201.199 301.934 198.746 303.259C196.731 304.347 194.537 305.129 192.281 305.533C191.081 305.748 189.941 305.771 188.804 305.687C188.735 305.743 188.658 305.794 188.57 305.84L187.968 306.155C190.689 306.279 193.46 307.115 195.993 307.88C198.617 308.673 201.192 309.629 203.755 310.607L206.275 311.571C212.493 313.942 218.929 316.194 225.657 316.174C226.141 316.173 226.537 316.306 226.849 316.523M217.45 286.645C219.454 286.401 221.304 286.663 222.906 287.962C224.838 289.529 226.135 292.128 228.912 292.298C229.722 292.348 229.91 293.482 229.105 293.719C227.038 294.328 225.365 293.214 223.956 291.769L223.01 290.783C221.618 289.348 220.334 288.239 217.973 288.325C215.444 288.417 212.91 288.999 210.398 289.295C207.551 289.63 204.706 289.915 201.85 290.162C201.718 290.173 201.695 289.965 201.819 289.935L205.017 289.142M215.515 278.486L215.845 278.453C218.756 278.171 221.418 278.16 224.018 279.719L224.516 280.02C226.86 281.438 229.411 283.109 230.877 285.406C231.117 285.782 230.72 286.224 230.319 286.129C227.502 285.455 225.443 283.397 223.074 281.857C220.415 280.129 217.669 280.414 214.638 280.682C211.703 280.942 208.769 281.299 205.863 281.787C203.132 282.244 200.393 282.966 197.634 283.196L197.635 283.191C197.32 283.19 197.14 282.719 197.461 282.559C200.261 281.167 203.503 280.508 206.548 279.872M115.845 199.673C115.841 199.444 116.165 199.358 116.278 199.556C118.172 202.874 119.162 206.941 120.171 210.596C121.227 214.425 122.08 218.293 122.847 222.19C124.399 230.079 125.226 237.924 125.282 245.965C125.29 247.113 123.411 247.419 123.227 246.242C122.007 238.42 120.839 230.59 119.609 222.771C118.991 218.838 118.271 214.92 117.582 210.998M134.594 205.452C134.454 204.994 135.123 204.841 135.294 205.26C139.095 214.55 140.382 225.078 137.942 234.879C137.568 236.378 135.363 235.728 135.645 234.248M183.619 197.197C183.6 196.855 184.046 196.801 184.214 197.036C186.015 199.563 186.762 202.947 189.922 204.253C191.499 204.905 193.275 204.791 194.668 205.892C195.6 206.629 196.315 207.791 195.615 208.907C195.39 209.267 194.758 209.448 194.452 209.056C194.005 208.486 193.769 207.802 193.162 207.375C192.306 206.772 191.151 206.734 190.17 206.451C188.9 206.084 187.781 205.443 186.864 204.49M213.706 155.055C213.891 154.961 214.069 155.021 214.188 155.181C214.358 155.408 214.337 155.63 214.129 155.786C214.406 156.35 214.734 157.764 214.781 157.97C214.97 158.804 215.172 159.633 215.383 160.462C215.809 162.134 216.182 163.818 216.608 165.49C217.06 167.262 217.598 169.016 218.197 170.744C218.236 170.856 218.278 170.97 218.323 171.086L218.391 171.261L218.408 171.234C218.529 171.043 218.783 171.177 218.753 171.379C218.725 171.564 218.687 171.747 218.656 171.932L218.719 172.097C219.11 173.147 219.379 174.253 218.66 175.18C218.391 175.526 218.095 175.731 217.726 175.792C217.135 177.733 216.393 179.638 215.599 181.467L215.366 182.001C214.198 184.67 212.952 187.304 211.092 189.576C209.061 192.057 206.268 193.751 204.499 196.469C203.676 197.733 203.103 199.063 202.639 200.491L202.464 201.033C202.134 202.043 201.753 203.022 200.802 203.614C200.498 203.803 200.043 203.743 199.798 203.485C197.847 201.43 199.89 197.592 201.066 195.602C202.702 192.835 205.069 191.065 207.439 188.978C209.994 186.727 211.623 183.717 213.2 180.752C214.165 178.935 215.097 177.079 216.078 175.255C215.053 174.352 214.725 172.56 214.378 171.314L214.346 171.202C213.772 169.207 213.316 167.16 213.028 165.105C212.75 163.128 212.635 161.18 212.708 159.192L212.729 158.685M217.517 164.463C217.291 164.154 217.666 163.803 217.977 163.868C219.866 164.257 221.714 165.396 223.41 166.317L223.591 166.415C224.944 167.142 226.307 168.032 227.017 169.444C227.79 170.979 227.727 172.747 227.621 174.415L227.611 174.571C227.482 176.571 227.461 178.65 227.036 180.614C226.819 181.619 225.904 181.902 225.123 181.665C224.192 184.589 221.579 186.744 219.671 189.052C217.237 191.995 217.695 195.967 217.949 199.511C218.052 200.945 216.26 201.353 215.337 200.588L213.21 198.828C212.855 198.535 212.502 198.241 212.149 197.945C211.847 197.692 211.547 197.437 211.25 197.179L210.806 196.788C210.61 196.613 209.742 195.648 209.488 195.608C208.873 195.51 207.413 197.123 206.913 197.629L206.85 197.692C205.909 198.611 205.059 199.599 204.268 200.647C204.122 200.84 203.837 200.68 203.941 200.458C204.651 198.945 205.475 197.498 206.455 196.144L206.653 195.874C207.304 195 208.179 193.456 209.329 193.198C210.734 192.882 212.136 194.285 213.158 195.063L213.223 195.112C213.709 195.475 214.19 195.845 214.669 196.217C214.619 193.579 214.954 190.913 216.322 188.639C217.286 187.036 218.731 185.848 219.968 184.47C221.345 182.936 222.064 181.05 223.31 179.452C223.47 179.246 223.692 179.136 223.931 179.1C223.979 177.816 224.169 176.518 224.316 175.248L224.358 174.867C224.507 173.486 224.858 171.8 224.179 170.507C223.537 169.285 222.066 168.423 220.976 167.595L220.087 166.907M156.192 149.863C155.623 150.191 155.091 150.598 154.609 151.108C153.09 152.712 152.004 154.708 150.948 156.628C150.379 157.663 149.83 158.708 149.257 159.74C149.007 160.189 148.751 160.633 148.491 161.076C148.372 161.281 148.015 161.687 147.839 161.937C148.035 162.211 148.238 162.48 148.445 162.747C148.524 162.849 153.971 168.758 155.87 171.071C158.778 174.613 161.377 178.355 163.599 182.36C165.775 186.282 167.431 190.434 169.447 194.432C170.456 196.433 171.582 198.421 173.019 200.153C173.074 200.22 173.133 200.284 173.189 200.351C173.738 198.876 175.142 197.298 175.832 196.391L175.896 196.306C177.461 194.206 179.113 192.169 180.801 190.167C182.343 188.339 183.924 186.55 185.543 184.791L186.152 184.132C187.281 182.919 188.714 181.103 190.365 180.236C190.188 179.922 189.983 179.611 189.748 179.304C188.201 177.291 186.013 175.83 183.855 174.511L182.455 173.663C177.179 170.462 171.985 167.111 167.404 162.951C164.981 160.75 162.591 158.445 160.554 155.877L159.833 154.969M164.995 148.278C162.525 148.484 159.856 148.435 157.573 149.237C159.603 151.148 161.532 153.211 163.515 155.154C163.691 153.84 164.052 152.542 164.357 151.26" fill="black"/>
<path fill-rule="evenodd" clip-rule="evenodd" d="M190.108 26.7592C207.665 26.7592 225.824 40.3389 232.26 49.0045C237.671 56.2901 240.584 89.2352 240.584 111.5C240.584 116.156 243.159 124.934 242.408 129.388C239.654 145.71 227.656 159.399 203.909 159.399C180.163 159.399 163.137 150.006 145.487 124.788C136.923 124.788 132.772 118.235 132.712 107.893C132.652 97.5505 140.978 93.7877 140.978 93.7877C140.978 93.7877 138.01 52.9736 145.487 42.3475C152.964 31.7215 172.551 26.7592 190.108 26.7592Z" fill="#D08B5B"/>
<path fill-rule="evenodd" clip-rule="evenodd" d="M182.72 20.9883C193.805 19.8682 204.667 20.8093 215.591 22.7565C216.426 22.9074 216.899 23.4539 217.075 24.1107C222.221 24.3452 227.372 24.722 232.511 25.0028C234.376 25.1046 235.433 26.9432 234.582 28.6035C234.413 28.9333 234.236 29.2542 234.057 29.5751L234.282 29.501C235.828 29.0061 237.498 28.7621 239.004 29.5476C240.921 30.5473 241.673 32.7531 241.249 34.7833C241.141 35.3017 240.959 35.7984 240.751 36.2832C241.172 36.2554 241.596 36.2647 242.016 36.3202C244.255 36.6164 245.918 38.3288 246.036 40.609C246.209 44.052 243.986 47.5451 241.367 50.01C241.747 50.791 241.892 51.7104 241.734 52.6422C241.419 54.4843 240.059 55.5873 238.483 56.3068C239.14 58.3898 239.451 60.5675 239.268 62.7931C239.206 63.5361 238.555 64.1498 237.868 64.3003C240.43 71.3395 241.727 78.897 242.659 86.261C243.324 91.5005 243.652 96.7704 243.692 102.049C243.711 104.433 243.672 106.819 243.572 109.202L243.531 110.096C243.407 112.673 243.401 115.378 242.938 117.927C244.521 120.614 245.158 123.95 245.427 126.961C245.761 130.688 245.232 134.533 244.053 138.078C239.607 151.475 226.188 159.929 212.709 162.126C200.233 164.16 185.796 161.423 178.505 150.115C178.391 149.936 178.635 149.788 178.777 149.905C183.994 154.138 190.045 156.026 196.619 156.946C207.985 158.532 220.761 155.841 229.883 148.708C234.261 145.283 237.418 140.297 238.807 134.931C239.515 132.188 239.759 129.328 239.48 126.505C239.196 123.642 237.925 121.198 237.124 118.492C236.855 117.578 237.14 116.73 237.7 116.125C237.857 113.928 238.228 111.713 238.37 109.523C238.528 107.032 238.624 104.542 238.658 102.049C238.723 96.8781 238.507 91.6976 238.071 86.5483C237.273 77.1188 235.155 67.9183 233.912 58.5691C233.451 58.981 232.792 59.1501 232.1 58.7903L232.029 58.7511L231.652 58.5355C231.63 58.5355 231.605 58.5385 231.583 58.5413C229.002 58.7916 226.324 58.4336 223.85 57.6651C221.262 56.8631 218.86 55.629 216.713 53.9844C216.306 56.0483 216.135 58.134 216.132 60.2383C216.129 61.5527 214.735 62.2349 213.628 61.6734C208.721 59.1862 204.033 56.3201 199.584 53.0989C199.064 55.7555 198.545 58.4117 198.022 61.0714C197.821 62.0961 196.513 62.5095 195.675 62.022C192.342 60.0871 189.464 57.5543 187.12 54.5426C186.652 55.4355 186.183 56.3283 185.71 57.2191L184.999 58.5537C184.297 59.865 183.357 61.3155 181.82 61.7348C180.194 62.1791 178.836 61.1272 178.289 59.6583C178.122 59.2019 177.967 58.7326 177.825 58.2605C176.439 61.4173 174.875 64.5027 173.107 67.4463C170.454 71.8612 167.268 75.7952 164.093 79.831C163.129 81.0562 161.477 79.8865 161.344 78.6958C161.267 77.9954 161.202 77.2919 161.146 76.5912C159.296 80.3172 157.365 84.0084 155.262 87.5924L155.563 88.7701C156.431 92.2499 157.152 95.7544 157.935 99.2527C158.188 100.381 157.587 101.995 156.265 102.187C154.687 102.417 153.193 103.222 151.576 102.668C149.812 102.064 149.464 100.543 148.631 99.1015C148.465 98.8142 148.272 98.5504 148.064 98.2999L148.011 98.3684C147.882 98.5384 147.572 98.3532 147.65 98.1589L147.74 97.9342C147.025 97.1768 146.169 96.5449 145.382 95.8651C143.512 95.5507 141.409 95.8951 140.12 96.6532C137.186 98.3807 135.838 101.941 135.81 105.215C135.776 109.047 136.966 113.355 138.976 116.631C139.861 118.072 141.073 119.374 142.674 120.013C144.264 120.648 145.986 120.451 147.603 121.05C148.673 121.448 149.332 122.633 148.686 123.706C148.642 123.78 148.593 123.848 148.546 123.919L149.027 124.556C149.358 124.998 149.703 125.47 150.024 125.962C150.847 126.906 151.713 127.816 152.551 128.745C154.099 130.457 155.602 132.216 157.127 133.953C158.565 135.592 160.086 137.131 161.654 138.646C163.135 140.081 164.984 141.287 166.344 142.818C167.667 144.311 168.026 146.918 165.849 147.782C163.441 148.741 161.309 146.494 159.687 144.997L159.619 144.934C156.647 142.205 153.963 139.086 151.832 135.652C149.72 137.086 146.667 137.223 144.564 135.79C143.458 135.035 142.609 133.767 142.197 132.388C141.808 132.475 141.419 132.526 141.04 132.52C140.845 132.633 140.649 132.743 140.451 132.846C138.883 133.66 136.957 133.296 136.24 131.565C135.587 129.993 136.26 128.208 136.848 126.694L136.97 126.381C137.304 125.518 137.672 124.577 138.129 123.691C136.855 122.734 135.767 121.546 134.845 120.195C131.75 115.644 130.204 108.988 130.888 103.558C131.299 100.282 132.842 96.8877 135.368 94.6782L135.275 94.4375C134.567 92.6452 133.924 90.846 133.507 88.9519C133.018 86.7365 132.78 84.4409 132.564 82.1855C132.106 77.4215 132.23 72.5496 132.839 67.8042C133.983 58.8718 136.883 50.1029 142.031 42.6701C140.572 40.9265 139.416 38.8746 140.018 36.5146C140.294 35.4313 140.921 34.4041 141.868 33.7836C142.39 33.4415 143.012 33.389 143.534 33.1052L143.691 33.0188C143.921 32.8852 143.745 32.8993 143.608 32.2783C143.067 29.7972 143.516 27.4001 146.252 26.5763C148.828 25.8019 151.264 27.4464 152.789 29.4057C156.777 26.5822 162.034 25.1046 166.657 23.8488C171.913 22.4261 177.305 21.5378 182.72 20.9883ZM139.635 104.203C139.616 102.182 141.536 100.936 143.426 101.266C144.695 101.486 145.753 102.242 146.747 103.023L147.232 103.406C148.442 104.354 149.831 105.376 150.553 106.718C151.61 108.699 149.375 111.364 147.288 109.976C145.856 109.019 144.938 107.484 143.999 106.059L143.902 105.912C143.475 105.274 143.101 104.595 142.517 104.083L142.39 103.972C142.198 103.809 141.992 103.66 141.744 103.589C141.265 103.452 140.378 103.644 140.167 104.213L140.148 104.271C140.071 104.558 139.638 104.496 139.635 104.203Z" fill="black"/>
<path fill-rule="evenodd" clip-rule="evenodd" d="M209.956 135.264C207.873 134.418 206.015 133.007 204.656 131.204C204.184 130.577 204.061 129.915 204.16 129.31C204.272 128.629 204.676 128.012 205.228 127.598C205.781 127.183 206.473 126.978 207.142 127.083C207.723 127.173 208.302 127.49 208.76 128.148L208.856 128.279C209.664 129.368 210.716 130.26 211.916 130.836C213.072 131.391 214.365 131.65 215.703 131.499C218.251 131.212 220.007 129.84 221.874 127.977C222.106 127.741 222.337 127.499 222.57 127.252C222.717 127.029 222.921 126.885 223.147 126.81C223.398 126.726 223.683 126.731 223.943 126.821C224.194 126.908 224.419 127.074 224.57 127.294C224.713 127.503 224.794 127.762 224.768 128.059C224.597 129.99 223.583 131.714 222.142 133.067C220.543 134.57 218.422 135.61 216.426 135.975C214.227 136.377 211.986 136.089 209.956 135.264ZM217.464 105.471C219.804 106.888 223.369 110.19 220.852 113.701C217.889 116.797 213.623 113.247 211.521 111.642C209.571 110.398 207.381 113.598 209.19 115.05C224.38 126.249 230.545 105.842 218.647 103.806C217.337 103.582 216.851 105.033 217.464 105.471ZM190.242 92.4444C190.501 89.249 195.388 88.5234 195.874 91.6854C196.309 94.5178 195.797 97.1198 194.516 99.6699C193.291 102.106 190.214 100.97 189.982 98.7511C189.67 95.7774 190.081 94.4321 190.242 92.4444ZM227.445 91.0298C228.127 90.1412 229.11 89.5346 230.289 89.8774C233.972 90.949 232.886 96.155 231.593 98.6891C230.89 100.065 228.619 100.414 227.592 99.2025C225.919 97.2266 225.118 93.2806 227.245 91.3343C227.302 91.2337 227.366 91.1322 227.445 91.0298ZM194.464 78.4625L195.046 78.3611C196.845 78.0511 199.083 77.7534 200.356 79.194C201.031 79.958 201.263 81.3779 200.356 82.1091C198.759 83.3958 196.994 82.8972 195.081 83.0061C193.505 83.0962 191.99 83.356 190.471 83.7883C187.139 84.7364 184.425 86.4674 181.579 88.368C181.206 88.6173 180.825 88.1418 181.003 87.7941C182.646 84.5905 185.829 81.9589 189.017 80.3548C190.719 79.4985 192.581 78.7883 194.464 78.4625ZM224.088 77.0273L224.533 77.118C229.379 78.1266 235.674 80.1412 237.968 84.8802C238.056 85.5504 237.963 85.694 237.888 85.7878L237.863 85.819C237.801 85.8992 237.752 86.0096 237.46 86.1008C237.379 86.0816 237.298 86.0613 237.215 86.0397C236.163 85.7653 235.331 85.3872 234.525 84.9948L233.652 84.5663C232.639 84.0715 231.616 83.5948 230.533 83.2428C228.221 82.4918 225.842 81.9628 223.427 81.6803C222.904 81.6191 222.4 81.4432 222.002 81.1417C221.624 80.8555 221.336 80.4593 221.205 79.9326C221.034 79.251 221.083 78.735 221.45 78.1201C221.727 77.6583 222.122 77.3382 222.575 77.1544C223.038 76.9671 223.565 76.9229 224.088 77.0273Z" fill="black"/>
<path fill-rule="evenodd" clip-rule="evenodd" d="M189.858 137.198C192.367 131.346 197.842 127.044 204.146 125.472C208.776 124.32 213.634 124.357 218.353 124.814C220.826 125.052 223.478 125.247 225.808 126.161C227.798 126.942 229.419 128.419 230.638 130.152C232.09 132.205 233.077 134.556 233.77 136.965C233.868 137.308 233.961 137.653 234.047 138C233.746 139.817 233.106 141.365 231.415 142.507C229.765 143.623 227.796 144.08 225.834 144.242C225.641 144.15 225.455 144.055 225.285 143.958C222.227 142.215 220.074 138.095 216.214 138.653C212.769 139.151 210.502 143.467 208.453 145.998C201.877 146.761 195.306 144.793 189.956 141.049C189.684 139.767 189.669 138.475 189.858 137.198ZM238.516 132.758C237.99 131.288 237.328 129.865 236.542 128.524C233.946 124.088 229.96 120.555 225.229 118.535C214.036 113.762 199.554 117.126 190.515 124.953C187.427 127.629 184.305 131.56 183.361 135.789C183.079 135.845 182.813 135.991 182.594 136.197C176.064 132.103 169.338 128.163 164.076 122.488C160.254 118.365 157.596 113.485 155.968 108.122C155.835 107.681 155.121 107.746 155.142 108.234C155.148 108.348 155.155 108.462 155.161 108.576C155.093 108.366 154.771 108.475 154.746 108.678C153.87 115.193 152.775 122.099 153.784 128.647C154.387 132.554 156.17 135.415 158.552 138.504C161.105 141.815 163.995 144.894 166.951 147.847C168.826 149.722 170.785 151.884 173.081 153.258C175.751 154.855 178.781 156.069 181.631 157.302C184.53 158.559 187.473 159.72 190.472 160.727C196.466 162.747 202.661 164.143 208.964 164.755C214.012 165.243 219.78 165.774 224.616 163.884C228.324 162.435 231.316 159.816 233.689 156.665C236.273 153.234 238.316 149.325 239.445 145.203C240.618 140.921 238.764 133.449 238.516 132.758Z" fill="black"/>
<path fill-rule="evenodd" clip-rule="evenodd" d="M243.591 108.233C241.505 111.024 237.637 111.913 234.069 111.606C226.375 110.868 223.954 102.167 223.702 95.4041C228.861 96.8493 223.265 86.6136 240.902 85.488C247.119 84.9722 245.405 88.7111 248.152 91.443C248.096 97.1764 247.137 103.406 243.591 108.233ZM206.943 101.645C202.401 122.828 177.526 117.789 174.913 98.6944C177.326 96.9986 176.69 92.8114 179.688 91.2942C184.439 88.2717 190.377 88.401 195.772 88.472C202.668 88.9437 204.633 91.7882 208.176 94.8916C208.005 96.9644 207.514 99.421 206.943 101.645ZM253.445 81.98C253.19 81.9377 252.934 81.8979 252.679 81.8606C252.48 81.7479 252.246 81.6612 251.974 81.6091C251.352 81.452 250.736 81.3462 250.12 81.2891C241.279 79.308 220.826 82.121 219.982 89.6334C217.166 90.5693 214.73 89.7312 211.467 89.8145C208.983 79.4767 166.042 80.9358 163.977 87.1685C163.969 87.1663 163.961 87.1645 163.953 87.162C161.969 86.5504 159.044 86.6979 156.772 86.601C151.923 86.4998 147.067 86.9303 142.323 87.9488C133.437 89.3548 121.311 91.0009 127.491 102.049C127.492 102.051 127.493 102.053 127.494 102.055L127.495 102.054C128.56 103.141 130.368 102.266 130.435 100.794C128.357 95.5603 133.05 94.9318 136.66 93.4276C145.644 90.2138 154.79 89.7683 164.082 90.7624C164.781 91.5819 165.842 92.2965 166.963 92.6704C173.175 93.6973 169.901 98.286 173.828 98.9534C173.106 114.949 192.609 123.68 203.91 113.165C208.421 108.773 209.497 102.266 210.543 96.4008C211.096 96.277 211.448 95.9759 211.653 95.5773C212.984 94.2548 213.819 93.0336 216.45 92.6704C219.08 92.3076 221.105 93.0361 221.379 93.2592C221.448 93.3977 221.522 93.5365 221.608 93.6754C221.728 93.8824 221.892 94.0475 222.078 94.1774C219.48 110.106 231.899 120.179 244.435 111.918C249.882 106.815 251.034 99.0037 251.261 92.0311C251.999 91.5875 252.467 90.7275 252.211 89.6464C251.859 88.1561 252.685 86.8658 254.001 86.2178C255.71 85.3764 255.408 82.3036 253.445 81.98Z" fill="black"/>
</svg>
