<svg width="39" height="35" viewBox="0 0 39 35" fill="none" xmlns="http://www.w3.org/2000/svg">
<path d="M25.9626 32.9909C29.2889 33.1268 32.0721 30.952 32.683 28.0296C35.4662 27.35 37.5706 24.9713 37.5706 22.1848C37.5706 21.0974 37.2312 20.01 36.6881 19.1265C36.213 18.3789 36.213 17.4275 36.6881 16.6119C37.2312 15.7284 37.5706 14.709 37.5706 13.5536C37.5706 10.7672 35.5341 8.45643 32.7509 7.70884C32.5473 4.51461 29.7641 2 26.302 2C23.3831 2 20.9393 3.76702 20.1247 6.28163C19.9211 6.82533 19.8532 7.43699 19.8532 8.04866V26.7383C19.7853 30.0685 22.5006 32.8549 25.9626 32.9909Z" stroke="white" stroke-width="2.6219" stroke-miterlimit="10"/>
<path d="M29.3183 21.858L29.6815 21.937L29.8619 21.612C30.1214 21.1442 30.5732 20.85 31.1217 20.85C31.9312 20.85 32.5903 21.5091 32.5903 22.3209C32.5903 23.1327 31.9312 23.7918 31.1217 23.7918C30.7072 23.7918 30.3606 23.6378 30.1178 23.3947L29.9834 23.2601L29.7935 23.2489C28.7492 23.1874 27.8913 22.821 27.1453 22.2608L26.3451 21.66V22.6607V24.8355V25.0424L26.4914 25.1888C26.836 25.5339 27.0239 25.8897 27.0239 26.3307C27.0239 27.1425 26.3648 27.8016 25.5553 27.8016C24.7459 27.8016 24.0867 27.1425 24.0867 26.3307C24.0867 25.8661 24.2933 25.4635 24.5859 25.2194L24.7656 25.0695V24.8355V10.4954V10.495V10.4946V10.4942V10.4938V10.4934V10.493V10.4926V10.4922V10.4918V10.4914V10.491V10.4906V10.4902V10.4898V10.4894V10.489V10.4886V10.4882V10.4878V10.4874V10.487V10.4866V10.4863V10.4859V10.4855V10.4851V10.4847V10.4843V10.4839V10.4835V10.4831V10.4827V10.4823V10.4819V10.4815V10.4811V10.4807V10.4803V10.4799V10.4795V10.4791V10.4787V10.4783V10.4779V10.4775V10.4771V10.4767V10.4763V10.4759V10.4755V10.4751V10.4747V10.4743V10.4739V10.4735V10.4731V10.4727V10.4723V10.4719V10.4715V10.4711V10.4707V10.4703V10.4699V10.4695V10.4691V10.4687V10.4683V10.4679V10.4675V10.4671V10.4667V10.4663V10.4659V10.4655V10.4651V10.4647V10.4643V10.464V10.4636V10.4632V10.4628V10.4624V10.462V10.4616V10.4612V10.4608V10.4604V10.46V10.4596V10.4592V10.4588V10.4584V10.458V10.4576V10.4572V10.4568V10.4564V10.456V10.4556V10.4552V10.4548V10.4544V10.454V10.4536V10.4532V10.4528V10.4524V10.452V10.4516V10.4512V10.4508V10.4504V10.45V10.4496V10.4492V10.4488V10.4484V10.448V10.4476V10.4472V10.4468V10.4464V10.446V10.4456V10.4452V10.4448V10.4444V10.444V10.4436V10.4432V10.4428V10.4424V10.442V10.4417V10.4413V10.4409V10.4405V10.4401V10.4397V10.4393V10.4389V10.4385V10.4381V10.4377V10.4373V10.4369V10.4365V10.4361V10.4357V10.4353V10.4349V10.4345V10.4341V10.4337V10.4333V10.4329V10.4325V10.4321V10.4317V10.4313V10.4309V10.4305V10.4301V10.4297V10.4293V10.4289V10.4285V10.4281V10.4277V10.4273V10.4269V10.4265V10.4261V10.4257V10.4253V10.4249V10.4245V10.4241V10.4237V10.4233V10.4229V10.4225V10.4221V10.4217V10.4213V10.4209V10.4205V10.4201V10.4197V10.4193V10.419V10.4186V10.4182V10.4178V10.4174V10.417V10.4166V10.4162V10.4158V10.4154V10.415V10.4146V10.4142V10.4138V10.4134V10.413V10.4126V10.4122V10.4118V10.4114V10.411V10.4106V10.4102V10.4098V10.4094V10.409V10.4086V10.4082V10.4078V10.4074V10.407V10.4066V10.4062V10.4058V10.4054V10.405V10.4046V10.4042V10.4038V10.4034V10.403V10.4026V10.4022V10.4018V10.4014V10.401V10.4006V10.4002V10.3998V10.3994V10.399V10.3986V10.3982V10.3978V10.3974V10.397V10.3967V10.3963V10.3959V10.3955V10.3951V10.3947V10.3943V10.3939V10.3935V10.3931V10.3927V10.3923V10.3919V10.3915V10.3911V10.3907V10.3903V10.3899V10.3895V10.3891V10.3887V10.3883V10.3879V10.3875V10.3871V10.3867V10.3863V10.3859V10.3855V10.3851V10.3847V10.3843V10.3839V10.3835V10.3831V10.3827V10.3823V10.3819V10.3815V10.3811V10.3807V10.3803V10.3799V10.3795V10.3791V10.3787V10.3783V10.3779V10.3775V10.3771V10.3767V10.3763V10.3759V10.3755V10.3751V10.3747V10.3744V10.374V10.3736V10.3732V10.3728V10.3724V10.372V10.3716V10.3712V10.3708V10.3704V10.37V10.3696V10.3692V10.3688V10.3684V10.368V10.3676V10.3672V10.3668V10.3664V10.366V10.3656V10.3652V10.3648V10.3644V10.364V10.3636V10.3632V10.3628V10.3624V10.362V10.3616V10.3612V10.3608V10.3604V10.36V10.3596V10.3592V10.3588V10.3584V10.358V10.3576V10.3572V10.3568V10.3564V10.356V10.3556V10.3552V10.3548V10.3544V10.354V10.3536V10.3532V10.3528V10.3524V10.3521V10.3517V10.3513V10.3509V10.3505V10.3501V10.3497V10.3493V10.3489V10.3485V10.3481V10.3477V10.3473V10.3469V10.3465V10.3461V10.3457V10.3453V10.3449V10.3445V10.3441V10.3437V10.3433V10.3429V10.3425V10.3421V10.3417V10.3413V10.3409V10.3405V10.3401V10.3397V10.3393V10.3389V10.3385V10.3381V10.3377V10.3373V10.3369V10.3365V10.3361V10.3357V10.3353V10.3349V10.3345V10.3341V10.3337V10.3333V10.3329V10.3325V10.3321V10.3317V10.3313V10.3309V10.3305V10.3301V10.3298V10.3294V10.329V10.3286V10.3282V10.3278V10.3274V10.327V10.3266V10.3262V10.3258V10.3254V10.325V10.3246V10.3242V10.3238V10.3234V10.323V10.3226V10.3222V10.3218V10.3214V10.321V10.3206V10.3202V10.3198V10.3194V10.319V10.3186V10.3182V10.3178V10.3174V10.317V10.3166V10.3162V10.3158V10.3154V10.315V10.3146V10.3142V10.3138V10.3134V10.313V10.3126V10.3122V10.3118V10.3114V10.311V10.3106V10.3102V10.3098V10.3094V10.309V10.3086V10.3082V10.3078V10.3075V10.3071V10.3067V10.3063V10.3059V10.3055V10.3051V10.3047V10.3043V10.3039V10.3035V10.3031V10.3027V10.3023V10.3019V10.3015V10.3011V10.3007V10.3003V10.2999V10.2995V10.2991V10.2987V10.2983V10.2979V10.2975V10.2971V10.2967V10.2963V10.2959V10.2955V10.2951V10.2947V10.2943V10.2939V10.2935V10.2931V10.2927V10.2923V10.2919V10.2915V10.0846L24.6193 9.93818C24.2747 9.59313 24.0867 9.2373 24.0867 8.79635C24.0867 7.98454 24.7459 7.32544 25.5553 7.32544C26.3648 7.32544 27.0239 7.98454 27.0239 8.79635C27.0239 9.26087 26.8173 9.66352 26.5248 9.9076L26.3451 10.0575V10.2915V10.2919V10.2923V10.2927V10.2931V10.2935V10.2939V10.2943V10.2947V10.2951V10.2955V10.2959V10.2963V10.2967V10.2971V10.2975V10.2979V10.2983V10.2987V10.2991V10.2995V10.2999V10.3003V10.3007V10.3011V10.3015V10.3019V10.3023V10.3027V10.3031V10.3035V10.3039V10.3043V10.3047V10.3051V10.3055V10.3059V10.3063V10.3067V10.3071V10.3075V10.3078V10.3082V10.3086V10.309V10.3094V10.3098V10.3102V10.3106V10.311V10.3114V10.3118V10.3122V10.3126V10.313V10.3134V10.3138V10.3142V10.3146V10.315V10.3154V10.3158V10.3162V10.3166V10.317V10.3174V10.3178V10.3182V10.3186V10.319V10.3194V10.3198V10.3202V10.3206V10.321V10.3214V10.3218V10.3222V10.3226V10.323V10.3234V10.3238V10.3242V10.3246V10.325V10.3254V10.3258V10.3262V10.3266V10.327V10.3274V10.3278V10.3282V10.3286V10.329V10.3294V10.3298V10.3301V10.3305V10.3309V10.3313V10.3317V10.3321V10.3325V10.3329V10.3333V10.3337V10.3341V10.3345V10.3349V10.3353V10.3357V10.3361V10.3365V10.3369V10.3373V10.3377V10.3381V10.3385V10.3389V10.3393V10.3397V10.3401V10.3405V10.3409V10.3413V10.3417V10.3421V10.3425V10.3429V10.3433V10.3437V10.3441V10.3445V10.3449V10.3453V10.3457V10.3461V10.3465V10.3469V10.3473V10.3477V10.3481V10.3485V10.3489V10.3493V10.3497V10.3501V10.3505V10.3509V10.3513V10.3517V10.3521V10.3524V10.3528V10.3532V10.3536V10.354V10.3544V10.3548V10.3552V10.3556V10.356V10.3564V10.3568V10.3572V10.3576V10.358V10.3584V10.3588V10.3592V10.3596V10.36V10.3604V10.3608V10.3612V10.3616V10.362V10.3624V10.3628V10.3632V10.3636V10.364V10.3644V10.3648V10.3652V10.3656V10.366V10.3664V10.3668V10.3672V10.3676V10.368V10.3684V10.3688V10.3692V10.3696V10.37V10.3704V10.3708V10.3712V10.3716V10.372V10.3724V10.3728V10.3732V10.3736V10.374V10.3744V10.3747V10.3751V10.3755V10.3759V10.3763V10.3767V10.3771V10.3775V10.3779V10.3783V10.3787V10.3791V10.3795V10.3799V10.3803V10.3807V10.3811V10.3815V10.3819V10.3823V10.3827V10.3831V10.3835V10.3839V10.3843V10.3847V10.3851V10.3855V10.3859V10.3863V10.3867V10.3871V10.3875V10.3879V10.3883V10.3887V10.3891V10.3895V10.3899V10.3903V10.3907V10.3911V10.3915V10.3919V10.3923V10.3927V10.3931V10.3935V10.3939V10.3943V10.3947V10.3951V10.3955V10.3959V10.3963V10.3967V10.397V10.3974V10.3978V10.3982V10.3986V10.399V10.3994V10.3998V10.4002V10.4006V10.401V10.4014V10.4018V10.4022V10.4026V10.403V10.4034V10.4038V10.4042V10.4046V10.405V10.4054V10.4058V10.4062V10.4066V10.407V10.4074V10.4078V10.4082V10.4086V10.409V10.4094V10.4098V10.4102V10.4106V10.411V10.4114V10.4118V10.4122V10.4126V10.413V10.4134V10.4138V10.4142V10.4146V10.415V10.4154V10.4158V10.4162V10.4166V10.417V10.4174V10.4178V10.4182V10.4186V10.419V10.4193V10.4197V10.4201V10.4205V10.4209V10.4213V10.4217V10.4221V10.4225V10.4229V10.4233V10.4237V10.4241V10.4245V10.4249V10.4253V10.4257V10.4261V10.4265V10.4269V10.4273V10.4277V10.4281V10.4285V10.4289V10.4293V10.4297V10.4301V10.4305V10.4309V10.4313V10.4317V10.4321V10.4325V10.4329V10.4333V10.4337V10.4341V10.4345V10.4349V10.4353V10.4357V10.4361V10.4365V10.4369V10.4373V10.4377V10.4381V10.4385V10.4389V10.4393V10.4397V10.4401V10.4405V10.4409V10.4413V10.4417V10.442V10.4424V10.4428V10.4432V10.4436V10.444V10.4444V10.4448V10.4452V10.4456V10.446V10.4464V10.4468V10.4472V10.4476V10.448V10.4484V10.4488V10.4492V10.4496V10.45V10.4504V10.4508V10.4512V10.4516V10.452V10.4524V10.4528V10.4532V10.4536V10.454V10.4544V10.4548V10.4552V10.4556V10.456V10.4564V10.4568V10.4572V10.4576V10.458V10.4584V10.4588V10.4592V10.4596V10.46V10.4604V10.4608V10.4612V10.4616V10.462V10.4624V10.4628V10.4632V10.4636V10.464V10.4643V10.4647V10.4651V10.4655V10.4659V10.4663V10.4667V10.4671V10.4675V10.4679V10.4683V10.4687V10.4691V10.4695V10.4699V10.4703V10.4707V10.4711V10.4715V10.4719V10.4723V10.4727V10.4731V10.4735V10.4739V10.4743V10.4747V10.4751V10.4755V10.4759V10.4763V10.4767V10.4771V10.4775V10.4779V10.4783V10.4787V10.4791V10.4795V10.4799V10.4803V10.4807V10.4811V10.4815V10.4819V10.4823V10.4827V10.4831V10.4835V10.4839V10.4843V10.4847V10.4851V10.4855V10.4859V10.4863V10.4866V10.487V10.4874V10.4878V10.4882V10.4886V10.489V10.4894V10.4898V10.4902V10.4906V10.491V10.4914V10.4918V10.4922V10.4926V10.493V10.4934V10.4938V10.4942V10.4946V10.495V10.4954V12.8741V13.8748L27.1453 13.2739C27.8847 12.7188 28.8094 12.3478 29.8614 12.2858L30.0203 12.2765L30.1445 12.177C30.4124 11.9624 30.7804 11.811 31.1217 11.811C31.9312 11.811 32.5903 12.4701 32.5903 13.2819C32.5903 14.0937 31.9312 14.7528 31.1217 14.7528C30.5844 14.7528 30.0595 14.4014 29.794 13.9228L29.6058 13.5836L29.2304 13.6816C27.406 14.1581 26.3451 15.8206 26.3451 17.7674C26.3451 19.713 27.4762 21.457 29.3183 21.858Z" fill="white" stroke="white"/>
<path d="M13.608 2.06805C10.2817 1.93212 7.49851 4.10692 6.88757 7.02931C4.10437 7.70893 2 10.0876 2 12.8741C2 13.9615 2.33941 15.0489 2.88248 15.9324C3.35766 16.68 3.35766 17.6314 2.88248 18.447C2.33941 19.3305 2 20.3499 2 21.5053C2 24.2918 4.03649 26.6025 6.81969 27.3501C7.02333 30.5443 9.80653 33.0589 13.2686 33.0589C16.1875 33.0589 18.6313 31.2919 19.4459 28.7773C19.6496 28.2336 19.7174 27.6219 19.7174 27.0103V8.32059C19.7853 5.0584 17.1379 2.20397 13.608 2.06805Z" stroke="white" stroke-width="2.6219" stroke-miterlimit="10"/>
<path d="M14.5335 24.7675V24.9745L14.6798 25.1209C15.0244 25.4659 15.2123 25.8217 15.2123 26.2627C15.2123 27.1611 14.5428 27.7826 13.775 27.7346L13.7594 27.7336H13.7437C12.9343 27.7336 12.2751 27.0745 12.2751 26.2627C12.2751 25.7982 12.4817 25.3955 12.7743 25.1514L12.954 25.0015V24.7675V22.7286V21.7737L12.1691 22.3177C11.3656 22.8747 10.436 23.1865 9.43589 23.2491L9.27802 23.2589L9.15455 23.3578C8.88663 23.5724 8.51866 23.7238 8.17734 23.7238C7.36791 23.7238 6.70874 23.0647 6.70874 22.2529C6.70874 21.4411 7.36791 20.782 8.17734 20.782C8.71469 20.782 9.23953 21.1334 9.5051 21.612L9.69332 21.9512L10.0686 21.8532C11.8931 21.3767 12.954 19.7141 12.954 17.7674C12.954 15.8218 11.8229 14.0778 9.98075 13.6768L9.61756 13.5978L9.43722 13.9228C9.17765 14.3905 8.72589 14.6848 8.17734 14.6848C7.36791 14.6848 6.70874 14.0257 6.70874 13.2139C6.70874 12.4021 7.36791 11.743 8.17734 11.743C8.59184 11.743 8.9385 11.897 9.18124 12.14L9.31495 12.2739L9.50378 12.2857C10.5079 12.3486 11.44 12.6625 12.1764 13.154L12.954 13.673V12.7382V10.2915V10.0846L12.8077 9.93818C12.4631 9.59313 12.2751 9.2373 12.2751 8.79635C12.2751 7.98454 12.9343 7.32544 13.7437 7.32544C14.5532 7.32544 15.2123 7.98454 15.2123 8.79635C15.2123 9.26087 15.0058 9.66352 14.7132 9.9076L14.5335 10.0575V10.2915V24.7675Z" fill="white" stroke="white"/>
</svg>
